<svg width="1500" height="1000" xmlns="http://www.w3.org/2000/svg"><line x1="50.0" y1="850" x2="50.0" y2="860" stroke="black" stroke-width="1" /><text x="50.0" y="875" font-size="10" text-anchor="middle">2024-05-25</text><line x1="400.0" y1="850" x2="400.0" y2="860" stroke="black" stroke-width="1" /><text x="400.0" y="875" font-size="10" text-anchor="middle">2024-06-23</text><line x1="750.0" y1="850" x2="750.0" y2="860" stroke="black" stroke-width="1" /><text x="750.0" y="875" font-size="10" text-anchor="middle">2024-07-22</text><line x1="1100.0" y1="850" x2="1100.0" y2="860" stroke="black" stroke-width="1" /><text x="1100.0" y="875" font-size="10" text-anchor="middle">2024-08-20</text><line x1="1450.0" y1="850" x2="1450.0" y2="860" stroke="black" stroke-width="1" /><text x="1450.0" y="875" font-size="10" text-anchor="middle">2024-09-18</text><circle cx="416.057007296589" cy="53.46320346320346" r="18.81339281863718" fill="blue" opacity="0.7" /><circle cx="426.057007296589" cy="43.46320346320346" r="5.0" fill="lightblue" opacity="0.7" /><text x="416.057007296589" y="87.27659628184064" font-size="10" text-anchor="middle">upgrades-main.js</text><line x1="416.057007296589" y1="53.46320346320346" x2="50.0" y2="500.0" stroke="gray" stroke-width="1" /><circle cx="845.2326835765263" cy="56.926406926406926" r="15.303489201768059" fill="blue" opacity="0.7" /><circle cx="855.2326835765263" cy="46.926406926406926" r="5.0" fill="lightblue" opacity="0.7" /><text x="845.2326835765263" y="87.22989612817499" font-size="10" text-anchor="middle">special-effects.js</text><line x1="845.2326835765263" y1="56.926406926406926" x2="50.0" y2="500.0" stroke="gray" stroke-width="1" /><circle cx="706.8640676926713" cy="60.38961038961039" r="22.293944408554225" fill="blue" opacity="0.7" /><circle cx="716.8640676926713" cy="50.38961038961039" r="5.0" fill="lightblue" opacity="0.7" /><text x="706.8640676926713" y="97.68355479816461" font-size="10" text-anchor="middle">game.js</text><line x1="706.8640676926713" y1="60.38961038961039" x2="50.0" y2="500.0" stroke="gray" stroke-width="1" /><circle cx="416.057007296589" cy="63.85281385281385" r="18.82461492324944" fill="blue" opacity="0.7" /><circle cx="426.057007296589" cy="53.85281385281385" r="5.0" fill="lightblue" opacity="0.7" /><text x="416.057007296589" y="97.6774287760633" font-size="10" text-anchor="middle">upgrades-functions.js</text><line x1="416.057007296589" y1="63.85281385281385" x2="50.0" y2="500.0" stroke="gray" stroke-width="1" /><circle cx="1286.6837050830188" cy="67.31601731601731" r="17.82923909336759" fill="blue" opacity="0.7" /><circle cx="1296.6837050830188" cy="57.31601731601731" r="5.0" fill="lightblue" opacity="0.7" /><text x="1286.6837050830188" y="100.1452564093849" font-size="10" text-anchor="middle">game-spacetime.js</text><line x1="1286.6837050830188" y1="67.31601731601731" x2="50.0" y2="500.0" stroke="gray" stroke-width="1" /><circle cx="270.80012951485423" cy="70.77922077922078" r="20.138786023452766" fill="blue" opacity="0.7" /><circle cx="280.80012951485423" cy="60.77922077922078" r="5.0" fill="lightblue" opacity="0.7" /><text x="270.80012951485423" y="105.91800680267355" font-size="10" text-anchor="middle">ships.js</text><line x1="270.80012951485423" y1="70.77922077922078" x2="50.0" y2="500.0" stroke="gray" stroke-width="1" /><circle cx="1436.0848585796803" cy="74.24242424242425" r="17.4286071324079" fill="blue" opacity="0.7" /><circle cx="1446.0848585796803" cy="64.24242424242425" r="5.0" fill="lightblue" opacity="0.7" /><text x="1436.0848585796803" y="106.67103137483215" font-size="10" text-anchor="middle">game-taper.js</text><line x1="1436.0848585796803" y1="74.24242424242425" x2="50.0" y2="500.0" stroke="gray" stroke-width="1" /><circle cx="1443.291996908252" cy="77.7056277056277" r="17.41436791804377" fill="blue" opacity="0.7" /><circle cx="1453.291996908252" cy="67.7056277056277" r="5.0" fill="lightblue" opacity="0.7" /><text x="1443.291996908252" y="110.11999562367147" font-size="10" text-anchor="middle">game-damagereport.js</text><line x1="1443.291996908252" y1="77.7056277056277" x2="50.0" y2="500.0" stroke="gray" stroke-width="1" /><circle cx="844.8489698698303" cy="81.16883116883116" r="5.0" fill="blue" opacity="0.7" /><circle cx="854.8489698698303" cy="71.16883116883116" r="5.0" fill="lightblue" opacity="0.7" /><text x="844.8489698698303" y="101.16883116883116" font-size="10" text-anchor="middle">game-modes.js</text><line x1="844.8489698698303" y1="81.16883116883116" x2="50.0" y2="500.0" stroke="gray" stroke-width="1" /><circle cx="1198.2249797583133" cy="84.63203463203463" r="15.0" fill="blue" opacity="0.7" /><circle cx="1208.2249797583133" cy="74.63203463203463" r="5.0" fill="lightblue" opacity="0.7" /><text x="1198.2249797583133" y="114.63203463203463" font-size="10" text-anchor="middle">optimize.js</text><line x1="1198.2249797583133" y1="84.63203463203463" x2="50.0" y2="500.0" stroke="gray" stroke-width="1" /><circle cx="1198.3229343498624" cy="88.0952380952381" r="15.484550065040281" fill="blue" opacity="0.7" /><circle cx="1208.3229343498624" cy="78.0952380952381" r="5.0" fill="lightblue" opacity="0.7" /><text x="1198.3229343498624" y="118.57978816027838" font-size="10" text-anchor="middle">weapons-optimized.js</text><line x1="1198.3229343498624" y1="88.0952380952381" x2="50.0" y2="500.0" stroke="gray" stroke-width="1" /><circle cx="844.7283781258833" cy="91.55844155844156" r="15.851308576974787" fill="blue" opacity="0.7" /><circle cx="854.7283781258833" cy="81.55844155844156" r="5.0" fill="lightblue" opacity="0.7" /><text x="844.7283781258833" y="122.40975013541635" font-size="10" text-anchor="middle">upgrade-menu.js</text><line x1="844.7283781258833" y1="91.55844155844156" x2="50.0" y2="500.0" stroke="gray" stroke-width="1" /><circle cx="1287.1086407647604" cy="95.02164502164501" r="17.585979489749874" fill="blue" opacity="0.7" /><circle cx="1297.1086407647604" cy="85.02164502164501" r="5.0" fill="lightblue" opacity="0.7" /><text x="1287.1086407647604" y="127.60762451139489" font-size="10" text-anchor="middle">upgrades-space.js</text><line x1="1287.1086407647604" y1="95.02164502164501" x2="50.0" y2="500.0" stroke="gray" stroke-width="1" /><circle cx="1305.1356392620048" cy="98.48484848484848" r="15.340929308730809" fill="blue" opacity="0.7" /><circle cx="1315.1356392620048" cy="88.48484848484848" r="5.0" fill="lightblue" opacity="0.7" /><text x="1305.1356392620048" y="128.82577779357928" font-size="10" text-anchor="middle">game-col.js</text><line x1="1305.1356392620048" y1="98.48484848484848" x2="50.0" y2="500.0" stroke="gray" stroke-width="1" /><circle cx="1367.976514054198" cy="101.94805194805195" r="15.761441721915281" fill="blue" opacity="0.7" /><circle cx="1377.976514054198" cy="91.94805194805195" r="5.0" fill="lightblue" opacity="0.7" /><text x="1367.976514054198" y="132.70949366996723" font-size="10" text-anchor="middle">game-playground.js</text><line x1="1367.976514054198" y1="101.94805194805195" x2="50.0" y2="500.0" stroke="gray" stroke-width="1" /><circle cx="365.8904226080874" cy="105.41125541125541" r="22.200608015939018" fill="blue" opacity="0.7" /><circle cx="375.8904226080874" cy="95.41125541125541" r="5.0" fill="lightblue" opacity="0.7" /><text x="365.8904226080874" y="142.61186342719444" font-size="10" text-anchor="middle">weapons.js</text><line x1="365.8904226080874" y1="105.41125541125541" x2="50.0" y2="500.0" stroke="gray" stroke-width="1" /><circle cx="269.392434000923" cy="108.87445887445887" r="17.546012611655513" fill="blue" opacity="0.7" /><circle cx="279.392434000923" cy="98.87445887445887" r="5.0" fill="lightblue" opacity="0.7" /><text x="269.392434000923" y="141.42047148611437" font-size="10" text-anchor="middle">audio.js</text><line x1="269.392434000923" y1="108.87445887445887" x2="50.0" y2="500.0" stroke="gray" stroke-width="1" /><circle cx="355.7976062908127" cy="112.33766233766234" r="20.989158466644515" fill="blue" opacity="0.7" /><circle cx="365.7976062908127" cy="102.33766233766234" r="5.0" fill="lightblue" opacity="0.7" /><text x="355.7976062908127" y="148.32682080430686" font-size="10" text-anchor="middle">aliens.js</text><line x1="355.7976062908127" y1="112.33766233766234" x2="50.0" y2="500.0" stroke="gray" stroke-width="1" /><circle cx="1293.0031037252688" cy="115.80086580086581" r="18.217263382430936" fill="blue" opacity="0.7" /><circle cx="1303.0031037252688" cy="105.80086580086581" r="5.0" fill="lightblue" opacity="0.7" /><text x="1293.0031037252688" y="149.01812918329674" font-size="10" text-anchor="middle">retro-infinite-asteroids-animation.js</text><line x1="1293.0031037252688" y1="115.80086580086581" x2="50.0" y2="500.0" stroke="gray" stroke-width="1" /><circle cx="642.0269314242003" cy="119.26406926406926" r="19.895464503191633" fill="blue" opacity="0.7" /><circle cx="652.0269314242003" cy="109.26406926406926" r="5.0" fill="lightblue" opacity="0.7" /><text x="642.0269314242003" y="154.15953376726088" font-size="10" text-anchor="middle">asteroids.js</text><line x1="642.0269314242003" y1="119.26406926406926" x2="50.0" y2="500.0" stroke="gray" stroke-width="1" /><circle cx="797.2864961201437" cy="122.72727272727272" r="17.371081320381276" fill="blue" opacity="0.7" /><circle cx="807.2864961201437" cy="112.72727272727272" r="5.0" fill="lightblue" opacity="0.7" /><text x="797.2864961201437" y="155.098354047654" font-size="10" text-anchor="middle">octo.js</text><line x1="797.2864961201437" y1="122.72727272727272" x2="50.0" y2="500.0" stroke="gray" stroke-width="1" /><circle cx="390.43244945966273" cy="126.19047619047619" r="18.529318561419597" fill="blue" opacity="0.7" /><circle cx="400.43244945966273" cy="116.19047619047619" r="5.0" fill="lightblue" opacity="0.7" /><text x="390.43244945966273" y="159.7197947518958" font-size="10" text-anchor="middle">gems.js</text><line x1="390.43244945966273" y1="126.19047619047619" x2="50.0" y2="500.0" stroke="gray" stroke-width="1" /><circle cx="355.16656073384297" cy="129.65367965367966" r="16.60073143055527" fill="blue" opacity="0.7" /><circle cx="365.16656073384297" cy="119.65367965367966" r="5.0" fill="lightblue" opacity="0.7" /><text x="355.16656073384297" y="161.25441108423493" font-size="10" text-anchor="middle">firebase.js</text><line x1="355.16656073384297" y1="129.65367965367966" x2="50.0" y2="500.0" stroke="gray" stroke-width="1" /><circle cx="1208.8499088924484" cy="133.11688311688312" r="17.977481109127872" fill="blue" opacity="0.7" /><circle cx="1218.8499088924484" cy="123.11688311688312" r="5.0" fill="lightblue" opacity="0.7" /><text x="1208.8499088924484" y="166.09436422601098" font-size="10" text-anchor="middle">weapons-secondary.js</text><line x1="1208.8499088924484" y1="133.11688311688312" x2="50.0" y2="500.0" stroke="gray" stroke-width="1" /><line x1="426.057007296589" y1="43.46320346320346" x2="716.8640676926713" y2="50.38961038961039" stroke="purple" stroke-width="0.5" opacity="0.3" /><line x1="426.057007296589" y1="43.46320346320346" x2="1296.6837050830188" y2="57.31601731601731" stroke="purple" stroke-width="0.5" opacity="0.3" /><line x1="426.057007296589" y1="43.46320346320346" x2="280.80012951485423" y2="60.77922077922078" stroke="purple" stroke-width="0.5" opacity="0.3" /><line x1="426.057007296589" y1="43.46320346320346" x2="1208.3229343498624" y2="78.0952380952381" stroke="purple" stroke-width="0.5" opacity="0.3" /><line x1="426.057007296589" y1="43.46320346320346" x2="1297.1086407647604" y2="85.02164502164501" stroke="purple" stroke-width="0.5" opacity="0.3" /><line x1="426.057007296589" y1="43.46320346320346" x2="375.8904226080874" y2="95.41125541125541" stroke="purple" stroke-width="0.5" opacity="0.3" /><line x1="426.057007296589" y1="43.46320346320346" x2="365.7976062908127" y2="102.33766233766234" stroke="purple" stroke-width="0.5" opacity="0.3" /><line x1="426.057007296589" y1="43.46320346320346" x2="1303.0031037252688" y2="105.80086580086581" stroke="purple" stroke-width="0.5" opacity="0.3" /><line x1="426.057007296589" y1="43.46320346320346" x2="652.0269314242003" y2="109.26406926406926" stroke="purple" stroke-width="0.5" opacity="0.3" /><line x1="426.057007296589" y1="43.46320346320346" x2="400.43244945966273" y2="116.19047619047619" stroke="purple" stroke-width="0.5" opacity="0.3" /><line x1="426.057007296589" y1="43.46320346320346" x2="1218.8499088924484" y2="123.11688311688312" stroke="purple" stroke-width="0.5" opacity="0.3" /><line x1="855.2326835765263" y1="46.926406926406926" x2="716.8640676926713" y2="50.38961038961039" stroke="purple" stroke-width="0.5" opacity="0.3" /><line x1="855.2326835765263" y1="46.926406926406926" x2="426.057007296589" y2="53.85281385281385" stroke="purple" stroke-width="0.5" opacity="0.3" /><line x1="855.2326835765263" y1="46.926406926406926" x2="1296.6837050830188" y2="57.31601731601731" stroke="purple" stroke-width="0.5" opacity="0.3" /><line x1="855.2326835765263" y1="46.926406926406926" x2="280.80012951485423" y2="60.77922077922078" stroke="purple" stroke-width="0.5" opacity="0.3" /><line x1="855.2326835765263" y1="46.926406926406926" x2="1208.3229343498624" y2="78.0952380952381" stroke="purple" stroke-width="0.5" opacity="0.3" /><line x1="855.2326835765263" y1="46.926406926406926" x2="854.7283781258833" y2="81.55844155844156" stroke="purple" stroke-width="0.5" opacity="0.3" /><line x1="855.2326835765263" y1="46.926406926406926" x2="375.8904226080874" y2="95.41125541125541" stroke="purple" stroke-width="0.5" opacity="0.3" /><line x1="855.2326835765263" y1="46.926406926406926" x2="365.7976062908127" y2="102.33766233766234" stroke="purple" stroke-width="0.5" opacity="0.3" /><line x1="855.2326835765263" y1="46.926406926406926" x2="1303.0031037252688" y2="105.80086580086581" stroke="purple" stroke-width="0.5" opacity="0.3" /><line x1="855.2326835765263" y1="46.926406926406926" x2="652.0269314242003" y2="109.26406926406926" stroke="purple" stroke-width="0.5" opacity="0.3" /><line x1="855.2326835765263" y1="46.926406926406926" x2="807.2864961201437" y2="112.72727272727272" stroke="purple" stroke-width="0.5" opacity="0.3" /><line x1="855.2326835765263" y1="46.926406926406926" x2="400.43244945966273" y2="116.19047619047619" stroke="purple" stroke-width="0.5" opacity="0.3" /><line x1="855.2326835765263" y1="46.926406926406926" x2="1218.8499088924484" y2="123.11688311688312" stroke="purple" stroke-width="0.5" opacity="0.3" /><line x1="716.8640676926713" y1="50.38961038961039" x2="426.057007296589" y2="43.46320346320346" stroke="purple" stroke-width="0.5" opacity="0.3" /><line x1="716.8640676926713" y1="50.38961038961039" x2="855.2326835765263" y2="46.926406926406926" stroke="purple" stroke-width="0.5" opacity="0.3" /><line x1="716.8640676926713" y1="50.38961038961039" x2="426.057007296589" y2="53.85281385281385" stroke="purple" stroke-width="0.5" opacity="0.3" /><line x1="716.8640676926713" y1="50.38961038961039" x2="1296.6837050830188" y2="57.31601731601731" stroke="purple" stroke-width="0.5" opacity="0.3" /><line x1="716.8640676926713" y1="50.38961038961039" x2="280.80012951485423" y2="60.77922077922078" stroke="purple" stroke-width="0.5" opacity="0.3" /><line x1="716.8640676926713" y1="50.38961038961039" x2="1446.0848585796803" y2="64.24242424242425" stroke="purple" stroke-width="0.5" opacity="0.3" /><line x1="716.8640676926713" y1="50.38961038961039" x2="1453.291996908252" y2="67.7056277056277" stroke="purple" stroke-width="0.5" opacity="0.3" /><line x1="716.8640676926713" y1="50.38961038961039" x2="1208.2249797583133" y2="74.63203463203463" stroke="purple" stroke-width="0.5" opacity="0.3" /><line x1="716.8640676926713" y1="50.38961038961039" x2="1208.3229343498624" y2="78.0952380952381" stroke="purple" stroke-width="0.5" opacity="0.3" /><line x1="716.8640676926713" y1="50.38961038961039" x2="854.7283781258833" y2="81.55844155844156" stroke="purple" stroke-width="0.5" opacity="0.3" /><line x1="716.8640676926713" y1="50.38961038961039" x2="1297.1086407647604" y2="85.02164502164501" stroke="purple" stroke-width="0.5" opacity="0.3" /><line x1="716.8640676926713" y1="50.38961038961039" x2="1315.1356392620048" y2="88.48484848484848" stroke="purple" stroke-width="0.5" opacity="0.3" /><line x1="716.8640676926713" y1="50.38961038961039" x2="375.8904226080874" y2="95.41125541125541" stroke="purple" stroke-width="0.5" opacity="0.3" /><line x1="716.8640676926713" y1="50.38961038961039" x2="365.7976062908127" y2="102.33766233766234" stroke="purple" stroke-width="0.5" opacity="0.3" /><line x1="716.8640676926713" y1="50.38961038961039" x2="1303.0031037252688" y2="105.80086580086581" stroke="purple" stroke-width="0.5" opacity="0.3" /><line x1="716.8640676926713" y1="50.38961038961039" x2="652.0269314242003" y2="109.26406926406926" stroke="purple" stroke-width="0.5" opacity="0.3" /><line x1="716.8640676926713" y1="50.38961038961039" x2="807.2864961201437" y2="112.72727272727272" stroke="purple" stroke-width="0.5" opacity="0.3" /><line x1="716.8640676926713" y1="50.38961038961039" x2="400.43244945966273" y2="116.19047619047619" stroke="purple" stroke-width="0.5" opacity="0.3" /><line x1="716.8640676926713" y1="50.38961038961039" x2="365.16656073384297" y2="119.65367965367966" stroke="purple" stroke-width="0.5" opacity="0.3" /><line x1="716.8640676926713" y1="50.38961038961039" x2="1218.8499088924484" y2="123.11688311688312" stroke="purple" stroke-width="0.5" opacity="0.3" /><line x1="426.057007296589" y1="53.85281385281385" x2="855.2326835765263" y2="46.926406926406926" stroke="purple" stroke-width="0.5" opacity="0.3" /><line x1="426.057007296589" y1="53.85281385281385" x2="716.8640676926713" y2="50.38961038961039" stroke="purple" stroke-width="0.5" opacity="0.3" /><line x1="426.057007296589" y1="53.85281385281385" x2="1296.6837050830188" y2="57.31601731601731" stroke="purple" stroke-width="0.5" opacity="0.3" /><line x1="426.057007296589" y1="53.85281385281385" x2="280.80012951485423" y2="60.77922077922078" stroke="purple" stroke-width="0.5" opacity="0.3" /><line x1="426.057007296589" y1="53.85281385281385" x2="1208.3229343498624" y2="78.0952380952381" stroke="purple" stroke-width="0.5" opacity="0.3" /><line x1="426.057007296589" y1="53.85281385281385" x2="854.7283781258833" y2="81.55844155844156" stroke="purple" stroke-width="0.5" opacity="0.3" /><line x1="426.057007296589" y1="53.85281385281385" x2="1297.1086407647604" y2="85.02164502164501" stroke="purple" stroke-width="0.5" opacity="0.3" /><line x1="426.057007296589" y1="53.85281385281385" x2="375.8904226080874" y2="95.41125541125541" stroke="purple" stroke-width="0.5" opacity="0.3" /><line x1="426.057007296589" y1="53.85281385281385" x2="365.7976062908127" y2="102.33766233766234" stroke="purple" stroke-width="0.5" opacity="0.3" /><line x1="426.057007296589" y1="53.85281385281385" x2="1303.0031037252688" y2="105.80086580086581" stroke="purple" stroke-width="0.5" opacity="0.3" /><line x1="426.057007296589" y1="53.85281385281385" x2="652.0269314242003" y2="109.26406926406926" stroke="purple" stroke-width="0.5" opacity="0.3" /><line x1="426.057007296589" y1="53.85281385281385" x2="807.2864961201437" y2="112.72727272727272" stroke="purple" stroke-width="0.5" opacity="0.3" /><line x1="426.057007296589" y1="53.85281385281385" x2="400.43244945966273" y2="116.19047619047619" stroke="purple" stroke-width="0.5" opacity="0.3" /><line x1="426.057007296589" y1="53.85281385281385" x2="1218.8499088924484" y2="123.11688311688312" stroke="purple" stroke-width="0.5" opacity="0.3" /><line x1="1296.6837050830188" y1="57.31601731601731" x2="426.057007296589" y2="43.46320346320346" stroke="purple" stroke-width="0.5" opacity="0.3" /><line x1="1296.6837050830188" y1="57.31601731601731" x2="855.2326835765263" y2="46.926406926406926" stroke="purple" stroke-width="0.5" opacity="0.3" /><line x1="1296.6837050830188" y1="57.31601731601731" x2="716.8640676926713" y2="50.38961038961039" stroke="purple" stroke-width="0.5" opacity="0.3" /><line x1="1296.6837050830188" y1="57.31601731601731" x2="426.057007296589" y2="53.85281385281385" stroke="purple" stroke-width="0.5" opacity="0.3" /><line x1="1296.6837050830188" y1="57.31601731601731" x2="280.80012951485423" y2="60.77922077922078" stroke="purple" stroke-width="0.5" opacity="0.3" /><line x1="1296.6837050830188" y1="57.31601731601731" x2="1208.3229343498624" y2="78.0952380952381" stroke="purple" stroke-width="0.5" opacity="0.3" /><line x1="1296.6837050830188" y1="57.31601731601731" x2="854.7283781258833" y2="81.55844155844156" stroke="purple" stroke-width="0.5" opacity="0.3" /><line x1="1296.6837050830188" y1="57.31601731601731" x2="1297.1086407647604" y2="85.02164502164501" stroke="purple" stroke-width="0.5" opacity="0.3" /><line x1="1296.6837050830188" y1="57.31601731601731" x2="375.8904226080874" y2="95.41125541125541" stroke="purple" stroke-width="0.5" opacity="0.3" /><line x1="1296.6837050830188" y1="57.31601731601731" x2="365.7976062908127" y2="102.33766233766234" stroke="purple" stroke-width="0.5" opacity="0.3" /><line x1="1296.6837050830188" y1="57.31601731601731" x2="1303.0031037252688" y2="105.80086580086581" stroke="purple" stroke-width="0.5" opacity="0.3" /><line x1="1296.6837050830188" y1="57.31601731601731" x2="652.0269314242003" y2="109.26406926406926" stroke="purple" stroke-width="0.5" opacity="0.3" /><line x1="1296.6837050830188" y1="57.31601731601731" x2="807.2864961201437" y2="112.72727272727272" stroke="purple" stroke-width="0.5" opacity="0.3" /><line x1="1296.6837050830188" y1="57.31601731601731" x2="400.43244945966273" y2="116.19047619047619" stroke="purple" stroke-width="0.5" opacity="0.3" /><line x1="1296.6837050830188" y1="57.31601731601731" x2="1218.8499088924484" y2="123.11688311688312" stroke="purple" stroke-width="0.5" opacity="0.3" /><line x1="280.80012951485423" y1="60.77922077922078" x2="426.057007296589" y2="43.46320346320346" stroke="purple" stroke-width="0.5" opacity="0.3" /><line x1="280.80012951485423" y1="60.77922077922078" x2="855.2326835765263" y2="46.926406926406926" stroke="purple" stroke-width="0.5" opacity="0.3" /><line x1="280.80012951485423" y1="60.77922077922078" x2="716.8640676926713" y2="50.38961038961039" stroke="purple" stroke-width="0.5" opacity="0.3" /><line x1="280.80012951485423" y1="60.77922077922078" x2="426.057007296589" y2="53.85281385281385" stroke="purple" stroke-width="0.5" opacity="0.3" /><line x1="280.80012951485423" y1="60.77922077922078" x2="1296.6837050830188" y2="57.31601731601731" stroke="purple" stroke-width="0.5" opacity="0.3" /><line x1="280.80012951485423" y1="60.77922077922078" x2="1453.291996908252" y2="67.7056277056277" stroke="purple" stroke-width="0.5" opacity="0.3" /><line x1="280.80012951485423" y1="60.77922077922078" x2="1208.3229343498624" y2="78.0952380952381" stroke="purple" stroke-width="0.5" opacity="0.3" /><line x1="280.80012951485423" y1="60.77922077922078" x2="854.7283781258833" y2="81.55844155844156" stroke="purple" stroke-width="0.5" opacity="0.3" /><line x1="280.80012951485423" y1="60.77922077922078" x2="1297.1086407647604" y2="85.02164502164501" stroke="purple" stroke-width="0.5" opacity="0.3" /><line x1="280.80012951485423" y1="60.77922077922078" x2="375.8904226080874" y2="95.41125541125541" stroke="purple" stroke-width="0.5" opacity="0.3" /><line x1="280.80012951485423" y1="60.77922077922078" x2="365.7976062908127" y2="102.33766233766234" stroke="purple" stroke-width="0.5" opacity="0.3" /><line x1="280.80012951485423" y1="60.77922077922078" x2="1303.0031037252688" y2="105.80086580086581" stroke="purple" stroke-width="0.5" opacity="0.3" /><line x1="280.80012951485423" y1="60.77922077922078" x2="652.0269314242003" y2="109.26406926406926" stroke="purple" stroke-width="0.5" opacity="0.3" /><line x1="280.80012951485423" y1="60.77922077922078" x2="807.2864961201437" y2="112.72727272727272" stroke="purple" stroke-width="0.5" opacity="0.3" /><line x1="280.80012951485423" y1="60.77922077922078" x2="400.43244945966273" y2="116.19047619047619" stroke="purple" stroke-width="0.5" opacity="0.3" /><line x1="280.80012951485423" y1="60.77922077922078" x2="1218.8499088924484" y2="123.11688311688312" stroke="purple" stroke-width="0.5" opacity="0.3" /><line x1="1446.0848585796803" y1="64.24242424242425" x2="716.8640676926713" y2="50.38961038961039" stroke="purple" stroke-width="0.5" opacity="0.3" /><line x1="1446.0848585796803" y1="64.24242424242425" x2="1315.1356392620048" y2="88.48484848484848" stroke="purple" stroke-width="0.5" opacity="0.3" /><line x1="1446.0848585796803" y1="64.24242424242425" x2="365.7976062908127" y2="102.33766233766234" stroke="purple" stroke-width="0.5" opacity="0.3" /><line x1="1446.0848585796803" y1="64.24242424242425" x2="652.0269314242003" y2="109.26406926406926" stroke="purple" stroke-width="0.5" opacity="0.3" /><line x1="1453.291996908252" y1="67.7056277056277" x2="716.8640676926713" y2="50.38961038961039" stroke="purple" stroke-width="0.5" opacity="0.3" /><line x1="1453.291996908252" y1="67.7056277056277" x2="280.80012951485423" y2="60.77922077922078" stroke="purple" stroke-width="0.5" opacity="0.3" /><line x1="1453.291996908252" y1="67.7056277056277" x2="1303.0031037252688" y2="105.80086580086581" stroke="purple" stroke-width="0.5" opacity="0.3" /><line x1="1453.291996908252" y1="67.7056277056277" x2="400.43244945966273" y2="116.19047619047619" stroke="purple" stroke-width="0.5" opacity="0.3" /><line x1="1208.2249797583133" y1="74.63203463203463" x2="716.8640676926713" y2="50.38961038961039" stroke="purple" stroke-width="0.5" opacity="0.3" /><line x1="1208.3229343498624" y1="78.0952380952381" x2="426.057007296589" y2="43.46320346320346" stroke="purple" stroke-width="0.5" opacity="0.3" /><line x1="1208.3229343498624" y1="78.0952380952381" x2="855.2326835765263" y2="46.926406926406926" stroke="purple" stroke-width="0.5" opacity="0.3" /><line x1="1208.3229343498624" y1="78.0952380952381" x2="716.8640676926713" y2="50.38961038961039" stroke="purple" stroke-width="0.5" opacity="0.3" /><line x1="1208.3229343498624" y1="78.0952380952381" x2="426.057007296589" y2="53.85281385281385" stroke="purple" stroke-width="0.5" opacity="0.3" /><line x1="1208.3229343498624" y1="78.0952380952381" x2="1296.6837050830188" y2="57.31601731601731" stroke="purple" stroke-width="0.5" opacity="0.3" /><line x1="1208.3229343498624" y1="78.0952380952381" x2="280.80012951485423" y2="60.77922077922078" stroke="purple" stroke-width="0.5" opacity="0.3" /><line x1="1208.3229343498624" y1="78.0952380952381" x2="854.7283781258833" y2="81.55844155844156" stroke="purple" stroke-width="0.5" opacity="0.3" /><line x1="1208.3229343498624" y1="78.0952380952381" x2="1297.1086407647604" y2="85.02164502164501" stroke="purple" stroke-width="0.5" opacity="0.3" /><line x1="1208.3229343498624" y1="78.0952380952381" x2="375.8904226080874" y2="95.41125541125541" stroke="purple" stroke-width="0.5" opacity="0.3" /><line x1="1208.3229343498624" y1="78.0952380952381" x2="365.7976062908127" y2="102.33766233766234" stroke="purple" stroke-width="0.5" opacity="0.3" /><line x1="1208.3229343498624" y1="78.0952380952381" x2="1303.0031037252688" y2="105.80086580086581" stroke="purple" stroke-width="0.5" opacity="0.3" /><line x1="1208.3229343498624" y1="78.0952380952381" x2="652.0269314242003" y2="109.26406926406926" stroke="purple" stroke-width="0.5" opacity="0.3" /><line x1="1208.3229343498624" y1="78.0952380952381" x2="807.2864961201437" y2="112.72727272727272" stroke="purple" stroke-width="0.5" opacity="0.3" /><line x1="1208.3229343498624" y1="78.0952380952381" x2="400.43244945966273" y2="116.19047619047619" stroke="purple" stroke-width="0.5" opacity="0.3" /><line x1="1208.3229343498624" y1="78.0952380952381" x2="1218.8499088924484" y2="123.11688311688312" stroke="purple" stroke-width="0.5" opacity="0.3" /><line x1="854.7283781258833" y1="81.55844155844156" x2="855.2326835765263" y2="46.926406926406926" stroke="purple" stroke-width="0.5" opacity="0.3" /><line x1="854.7283781258833" y1="81.55844155844156" x2="716.8640676926713" y2="50.38961038961039" stroke="purple" stroke-width="0.5" opacity="0.3" /><line x1="854.7283781258833" y1="81.55844155844156" x2="426.057007296589" y2="53.85281385281385" stroke="purple" stroke-width="0.5" opacity="0.3" /><line x1="854.7283781258833" y1="81.55844155844156" x2="1296.6837050830188" y2="57.31601731601731" stroke="purple" stroke-width="0.5" opacity="0.3" /><line x1="854.7283781258833" y1="81.55844155844156" x2="280.80012951485423" y2="60.77922077922078" stroke="purple" stroke-width="0.5" opacity="0.3" /><line x1="854.7283781258833" y1="81.55844155844156" x2="1208.3229343498624" y2="78.0952380952381" stroke="purple" stroke-width="0.5" opacity="0.3" /><line x1="854.7283781258833" y1="81.55844155844156" x2="1297.1086407647604" y2="85.02164502164501" stroke="purple" stroke-width="0.5" opacity="0.3" /><line x1="854.7283781258833" y1="81.55844155844156" x2="375.8904226080874" y2="95.41125541125541" stroke="purple" stroke-width="0.5" opacity="0.3" /><line x1="854.7283781258833" y1="81.55844155844156" x2="279.392434000923" y2="98.87445887445887" stroke="purple" stroke-width="0.5" opacity="0.3" /><line x1="854.7283781258833" y1="81.55844155844156" x2="365.7976062908127" y2="102.33766233766234" stroke="purple" stroke-width="0.5" opacity="0.3" /><line x1="854.7283781258833" y1="81.55844155844156" x2="1303.0031037252688" y2="105.80086580086581" stroke="purple" stroke-width="0.5" opacity="0.3" /><line x1="854.7283781258833" y1="81.55844155844156" x2="652.0269314242003" y2="109.26406926406926" stroke="purple" stroke-width="0.5" opacity="0.3" /><line x1="854.7283781258833" y1="81.55844155844156" x2="807.2864961201437" y2="112.72727272727272" stroke="purple" stroke-width="0.5" opacity="0.3" /><line x1="854.7283781258833" y1="81.55844155844156" x2="400.43244945966273" y2="116.19047619047619" stroke="purple" stroke-width="0.5" opacity="0.3" /><line x1="854.7283781258833" y1="81.55844155844156" x2="1218.8499088924484" y2="123.11688311688312" stroke="purple" stroke-width="0.5" opacity="0.3" /><line x1="1297.1086407647604" y1="85.02164502164501" x2="426.057007296589" y2="43.46320346320346" stroke="purple" stroke-width="0.5" opacity="0.3" /><line x1="1297.1086407647604" y1="85.02164502164501" x2="716.8640676926713" y2="50.38961038961039" stroke="purple" stroke-width="0.5" opacity="0.3" /><line x1="1297.1086407647604" y1="85.02164502164501" x2="426.057007296589" y2="53.85281385281385" stroke="purple" stroke-width="0.5" opacity="0.3" /><line x1="1297.1086407647604" y1="85.02164502164501" x2="1296.6837050830188" y2="57.31601731601731" stroke="purple" stroke-width="0.5" opacity="0.3" /><line x1="1297.1086407647604" y1="85.02164502164501" x2="280.80012951485423" y2="60.77922077922078" stroke="purple" stroke-width="0.5" opacity="0.3" /><line x1="1297.1086407647604" y1="85.02164502164501" x2="1208.3229343498624" y2="78.0952380952381" stroke="purple" stroke-width="0.5" opacity="0.3" /><line x1="1297.1086407647604" y1="85.02164502164501" x2="854.7283781258833" y2="81.55844155844156" stroke="purple" stroke-width="0.5" opacity="0.3" /><line x1="1297.1086407647604" y1="85.02164502164501" x2="375.8904226080874" y2="95.41125541125541" stroke="purple" stroke-width="0.5" opacity="0.3" /><line x1="1297.1086407647604" y1="85.02164502164501" x2="365.7976062908127" y2="102.33766233766234" stroke="purple" stroke-width="0.5" opacity="0.3" /><line x1="1297.1086407647604" y1="85.02164502164501" x2="1303.0031037252688" y2="105.80086580086581" stroke="purple" stroke-width="0.5" opacity="0.3" /><line x1="1297.1086407647604" y1="85.02164502164501" x2="652.0269314242003" y2="109.26406926406926" stroke="purple" stroke-width="0.5" opacity="0.3" /><line x1="1297.1086407647604" y1="85.02164502164501" x2="807.2864961201437" y2="112.72727272727272" stroke="purple" stroke-width="0.5" opacity="0.3" /><line x1="1297.1086407647604" y1="85.02164502164501" x2="400.43244945966273" y2="116.19047619047619" stroke="purple" stroke-width="0.5" opacity="0.3" /><line x1="1315.1356392620048" y1="88.48484848484848" x2="716.8640676926713" y2="50.38961038961039" stroke="purple" stroke-width="0.5" opacity="0.3" /><line x1="1315.1356392620048" y1="88.48484848484848" x2="1446.0848585796803" y2="64.24242424242425" stroke="purple" stroke-width="0.5" opacity="0.3" /><line x1="1315.1356392620048" y1="88.48484848484848" x2="365.16656073384297" y2="119.65367965367966" stroke="purple" stroke-width="0.5" opacity="0.3" /><line x1="375.8904226080874" y1="95.41125541125541" x2="426.057007296589" y2="43.46320346320346" stroke="purple" stroke-width="0.5" opacity="0.3" /><line x1="375.8904226080874" y1="95.41125541125541" x2="855.2326835765263" y2="46.926406926406926" stroke="purple" stroke-width="0.5" opacity="0.3" /><line x1="375.8904226080874" y1="95.41125541125541" x2="716.8640676926713" y2="50.38961038961039" stroke="purple" stroke-width="0.5" opacity="0.3" /><line x1="375.8904226080874" y1="95.41125541125541" x2="426.057007296589" y2="53.85281385281385" stroke="purple" stroke-width="0.5" opacity="0.3" /><line x1="375.8904226080874" y1="95.41125541125541" x2="1296.6837050830188" y2="57.31601731601731" stroke="purple" stroke-width="0.5" opacity="0.3" /><line x1="375.8904226080874" y1="95.41125541125541" x2="280.80012951485423" y2="60.77922077922078" stroke="purple" stroke-width="0.5" opacity="0.3" /><line x1="375.8904226080874" y1="95.41125541125541" x2="1208.3229343498624" y2="78.0952380952381" stroke="purple" stroke-width="0.5" opacity="0.3" /><line x1="375.8904226080874" y1="95.41125541125541" x2="854.7283781258833" y2="81.55844155844156" stroke="purple" stroke-width="0.5" opacity="0.3" /><line x1="375.8904226080874" y1="95.41125541125541" x2="1297.1086407647604" y2="85.02164502164501" stroke="purple" stroke-width="0.5" opacity="0.3" /><line x1="375.8904226080874" y1="95.41125541125541" x2="365.7976062908127" y2="102.33766233766234" stroke="purple" stroke-width="0.5" opacity="0.3" /><line x1="375.8904226080874" y1="95.41125541125541" x2="1303.0031037252688" y2="105.80086580086581" stroke="purple" stroke-width="0.5" opacity="0.3" /><line x1="375.8904226080874" y1="95.41125541125541" x2="652.0269314242003" y2="109.26406926406926" stroke="purple" stroke-width="0.5" opacity="0.3" /><line x1="375.8904226080874" y1="95.41125541125541" x2="807.2864961201437" y2="112.72727272727272" stroke="purple" stroke-width="0.5" opacity="0.3" /><line x1="375.8904226080874" y1="95.41125541125541" x2="400.43244945966273" y2="116.19047619047619" stroke="purple" stroke-width="0.5" opacity="0.3" /><line x1="375.8904226080874" y1="95.41125541125541" x2="1218.8499088924484" y2="123.11688311688312" stroke="purple" stroke-width="0.5" opacity="0.3" /><line x1="279.392434000923" y1="98.87445887445887" x2="854.7283781258833" y2="81.55844155844156" stroke="purple" stroke-width="0.5" opacity="0.3" /><line x1="279.392434000923" y1="98.87445887445887" x2="652.0269314242003" y2="109.26406926406926" stroke="purple" stroke-width="0.5" opacity="0.3" /><line x1="365.7976062908127" y1="102.33766233766234" x2="426.057007296589" y2="43.46320346320346" stroke="purple" stroke-width="0.5" opacity="0.3" /><line x1="365.7976062908127" y1="102.33766233766234" x2="855.2326835765263" y2="46.926406926406926" stroke="purple" stroke-width="0.5" opacity="0.3" /><line x1="365.7976062908127" y1="102.33766233766234" x2="716.8640676926713" y2="50.38961038961039" stroke="purple" stroke-width="0.5" opacity="0.3" /><line x1="365.7976062908127" y1="102.33766233766234" x2="426.057007296589" y2="53.85281385281385" stroke="purple" stroke-width="0.5" opacity="0.3" /><line x1="365.7976062908127" y1="102.33766233766234" x2="1296.6837050830188" y2="57.31601731601731" stroke="purple" stroke-width="0.5" opacity="0.3" /><line x1="365.7976062908127" y1="102.33766233766234" x2="280.80012951485423" y2="60.77922077922078" stroke="purple" stroke-width="0.5" opacity="0.3" /><line x1="365.7976062908127" y1="102.33766233766234" x2="1446.0848585796803" y2="64.24242424242425" stroke="purple" stroke-width="0.5" opacity="0.3" /><line x1="365.7976062908127" y1="102.33766233766234" x2="1208.3229343498624" y2="78.0952380952381" stroke="purple" stroke-width="0.5" opacity="0.3" /><line x1="365.7976062908127" y1="102.33766233766234" x2="854.7283781258833" y2="81.55844155844156" stroke="purple" stroke-width="0.5" opacity="0.3" /><line x1="365.7976062908127" y1="102.33766233766234" x2="1297.1086407647604" y2="85.02164502164501" stroke="purple" stroke-width="0.5" opacity="0.3" /><line x1="365.7976062908127" y1="102.33766233766234" x2="375.8904226080874" y2="95.41125541125541" stroke="purple" stroke-width="0.5" opacity="0.3" /><line x1="365.7976062908127" y1="102.33766233766234" x2="1303.0031037252688" y2="105.80086580086581" stroke="purple" stroke-width="0.5" opacity="0.3" /><line x1="365.7976062908127" y1="102.33766233766234" x2="652.0269314242003" y2="109.26406926406926" stroke="purple" stroke-width="0.5" opacity="0.3" /><line x1="365.7976062908127" y1="102.33766233766234" x2="807.2864961201437" y2="112.72727272727272" stroke="purple" stroke-width="0.5" opacity="0.3" /><line x1="365.7976062908127" y1="102.33766233766234" x2="400.43244945966273" y2="116.19047619047619" stroke="purple" stroke-width="0.5" opacity="0.3" /><line x1="365.7976062908127" y1="102.33766233766234" x2="1218.8499088924484" y2="123.11688311688312" stroke="purple" stroke-width="0.5" opacity="0.3" /><line x1="1303.0031037252688" y1="105.80086580086581" x2="426.057007296589" y2="43.46320346320346" stroke="purple" stroke-width="0.5" opacity="0.3" /><line x1="1303.0031037252688" y1="105.80086580086581" x2="855.2326835765263" y2="46.926406926406926" stroke="purple" stroke-width="0.5" opacity="0.3" /><line x1="1303.0031037252688" y1="105.80086580086581" x2="716.8640676926713" y2="50.38961038961039" stroke="purple" stroke-width="0.5" opacity="0.3" /><line x1="1303.0031037252688" y1="105.80086580086581" x2="426.057007296589" y2="53.85281385281385" stroke="purple" stroke-width="0.5" opacity="0.3" /><line x1="1303.0031037252688" y1="105.80086580086581" x2="1296.6837050830188" y2="57.31601731601731" stroke="purple" stroke-width="0.5" opacity="0.3" /><line x1="1303.0031037252688" y1="105.80086580086581" x2="280.80012951485423" y2="60.77922077922078" stroke="purple" stroke-width="0.5" opacity="0.3" /><line x1="1303.0031037252688" y1="105.80086580086581" x2="1453.291996908252" y2="67.7056277056277" stroke="purple" stroke-width="0.5" opacity="0.3" /><line x1="1303.0031037252688" y1="105.80086580086581" x2="1208.3229343498624" y2="78.0952380952381" stroke="purple" stroke-width="0.5" opacity="0.3" /><line x1="1303.0031037252688" y1="105.80086580086581" x2="854.7283781258833" y2="81.55844155844156" stroke="purple" stroke-width="0.5" opacity="0.3" /><line x1="1303.0031037252688" y1="105.80086580086581" x2="1297.1086407647604" y2="85.02164502164501" stroke="purple" stroke-width="0.5" opacity="0.3" /><line x1="1303.0031037252688" y1="105.80086580086581" x2="375.8904226080874" y2="95.41125541125541" stroke="purple" stroke-width="0.5" opacity="0.3" /><line x1="1303.0031037252688" y1="105.80086580086581" x2="365.7976062908127" y2="102.33766233766234" stroke="purple" stroke-width="0.5" opacity="0.3" /><line x1="1303.0031037252688" y1="105.80086580086581" x2="652.0269314242003" y2="109.26406926406926" stroke="purple" stroke-width="0.5" opacity="0.3" /><line x1="1303.0031037252688" y1="105.80086580086581" x2="807.2864961201437" y2="112.72727272727272" stroke="purple" stroke-width="0.5" opacity="0.3" /><line x1="1303.0031037252688" y1="105.80086580086581" x2="400.43244945966273" y2="116.19047619047619" stroke="purple" stroke-width="0.5" opacity="0.3" /><line x1="1303.0031037252688" y1="105.80086580086581" x2="1218.8499088924484" y2="123.11688311688312" stroke="purple" stroke-width="0.5" opacity="0.3" /><line x1="652.0269314242003" y1="109.26406926406926" x2="426.057007296589" y2="43.46320346320346" stroke="purple" stroke-width="0.5" opacity="0.3" /><line x1="652.0269314242003" y1="109.26406926406926" x2="855.2326835765263" y2="46.926406926406926" stroke="purple" stroke-width="0.5" opacity="0.3" /><line x1="652.0269314242003" y1="109.26406926406926" x2="716.8640676926713" y2="50.38961038961039" stroke="purple" stroke-width="0.5" opacity="0.3" /><line x1="652.0269314242003" y1="109.26406926406926" x2="426.057007296589" y2="53.85281385281385" stroke="purple" stroke-width="0.5" opacity="0.3" /><line x1="652.0269314242003" y1="109.26406926406926" x2="1296.6837050830188" y2="57.31601731601731" stroke="purple" stroke-width="0.5" opacity="0.3" /><line x1="652.0269314242003" y1="109.26406926406926" x2="280.80012951485423" y2="60.77922077922078" stroke="purple" stroke-width="0.5" opacity="0.3" /><line x1="652.0269314242003" y1="109.26406926406926" x2="1446.0848585796803" y2="64.24242424242425" stroke="purple" stroke-width="0.5" opacity="0.3" /><line x1="652.0269314242003" y1="109.26406926406926" x2="1208.3229343498624" y2="78.0952380952381" stroke="purple" stroke-width="0.5" opacity="0.3" /><line x1="652.0269314242003" y1="109.26406926406926" x2="854.7283781258833" y2="81.55844155844156" stroke="purple" stroke-width="0.5" opacity="0.3" /><line x1="652.0269314242003" y1="109.26406926406926" x2="1297.1086407647604" y2="85.02164502164501" stroke="purple" stroke-width="0.5" opacity="0.3" /><line x1="652.0269314242003" y1="109.26406926406926" x2="375.8904226080874" y2="95.41125541125541" stroke="purple" stroke-width="0.5" opacity="0.3" /><line x1="652.0269314242003" y1="109.26406926406926" x2="279.392434000923" y2="98.87445887445887" stroke="purple" stroke-width="0.5" opacity="0.3" /><line x1="652.0269314242003" y1="109.26406926406926" x2="365.7976062908127" y2="102.33766233766234" stroke="purple" stroke-width="0.5" opacity="0.3" /><line x1="652.0269314242003" y1="109.26406926406926" x2="1303.0031037252688" y2="105.80086580086581" stroke="purple" stroke-width="0.5" opacity="0.3" /><line x1="652.0269314242003" y1="109.26406926406926" x2="807.2864961201437" y2="112.72727272727272" stroke="purple" stroke-width="0.5" opacity="0.3" /><line x1="652.0269314242003" y1="109.26406926406926" x2="400.43244945966273" y2="116.19047619047619" stroke="purple" stroke-width="0.5" opacity="0.3" /><line x1="652.0269314242003" y1="109.26406926406926" x2="1218.8499088924484" y2="123.11688311688312" stroke="purple" stroke-width="0.5" opacity="0.3" /><line x1="807.2864961201437" y1="112.72727272727272" x2="855.2326835765263" y2="46.926406926406926" stroke="purple" stroke-width="0.5" opacity="0.3" /><line x1="807.2864961201437" y1="112.72727272727272" x2="716.8640676926713" y2="50.38961038961039" stroke="purple" stroke-width="0.5" opacity="0.3" /><line x1="807.2864961201437" y1="112.72727272727272" x2="426.057007296589" y2="53.85281385281385" stroke="purple" stroke-width="0.5" opacity="0.3" /><line x1="807.2864961201437" y1="112.72727272727272" x2="1296.6837050830188" y2="57.31601731601731" stroke="purple" stroke-width="0.5" opacity="0.3" /><line x1="807.2864961201437" y1="112.72727272727272" x2="280.80012951485423" y2="60.77922077922078" stroke="purple" stroke-width="0.5" opacity="0.3" /><line x1="807.2864961201437" y1="112.72727272727272" x2="1208.3229343498624" y2="78.0952380952381" stroke="purple" stroke-width="0.5" opacity="0.3" /><line x1="807.2864961201437" y1="112.72727272727272" x2="854.7283781258833" y2="81.55844155844156" stroke="purple" stroke-width="0.5" opacity="0.3" /><line x1="807.2864961201437" y1="112.72727272727272" x2="1297.1086407647604" y2="85.02164502164501" stroke="purple" stroke-width="0.5" opacity="0.3" /><line x1="807.2864961201437" y1="112.72727272727272" x2="375.8904226080874" y2="95.41125541125541" stroke="purple" stroke-width="0.5" opacity="0.3" /><line x1="807.2864961201437" y1="112.72727272727272" x2="365.7976062908127" y2="102.33766233766234" stroke="purple" stroke-width="0.5" opacity="0.3" /><line x1="807.2864961201437" y1="112.72727272727272" x2="1303.0031037252688" y2="105.80086580086581" stroke="purple" stroke-width="0.5" opacity="0.3" /><line x1="807.2864961201437" y1="112.72727272727272" x2="652.0269314242003" y2="109.26406926406926" stroke="purple" stroke-width="0.5" opacity="0.3" /><line x1="807.2864961201437" y1="112.72727272727272" x2="400.43244945966273" y2="116.19047619047619" stroke="purple" stroke-width="0.5" opacity="0.3" /><line x1="807.2864961201437" y1="112.72727272727272" x2="1218.8499088924484" y2="123.11688311688312" stroke="purple" stroke-width="0.5" opacity="0.3" /><line x1="400.43244945966273" y1="116.19047619047619" x2="426.057007296589" y2="43.46320346320346" stroke="purple" stroke-width="0.5" opacity="0.3" /><line x1="400.43244945966273" y1="116.19047619047619" x2="855.2326835765263" y2="46.926406926406926" stroke="purple" stroke-width="0.5" opacity="0.3" /><line x1="400.43244945966273" y1="116.19047619047619" x2="716.8640676926713" y2="50.38961038961039" stroke="purple" stroke-width="0.5" opacity="0.3" /><line x1="400.43244945966273" y1="116.19047619047619" x2="426.057007296589" y2="53.85281385281385" stroke="purple" stroke-width="0.5" opacity="0.3" /><line x1="400.43244945966273" y1="116.19047619047619" x2="1296.6837050830188" y2="57.31601731601731" stroke="purple" stroke-width="0.5" opacity="0.3" /><line x1="400.43244945966273" y1="116.19047619047619" x2="280.80012951485423" y2="60.77922077922078" stroke="purple" stroke-width="0.5" opacity="0.3" /><line x1="400.43244945966273" y1="116.19047619047619" x2="1453.291996908252" y2="67.7056277056277" stroke="purple" stroke-width="0.5" opacity="0.3" /><line x1="400.43244945966273" y1="116.19047619047619" x2="1208.3229343498624" y2="78.0952380952381" stroke="purple" stroke-width="0.5" opacity="0.3" /><line x1="400.43244945966273" y1="116.19047619047619" x2="854.7283781258833" y2="81.55844155844156" stroke="purple" stroke-width="0.5" opacity="0.3" /><line x1="400.43244945966273" y1="116.19047619047619" x2="1297.1086407647604" y2="85.02164502164501" stroke="purple" stroke-width="0.5" opacity="0.3" /><line x1="400.43244945966273" y1="116.19047619047619" x2="375.8904226080874" y2="95.41125541125541" stroke="purple" stroke-width="0.5" opacity="0.3" /><line x1="400.43244945966273" y1="116.19047619047619" x2="365.7976062908127" y2="102.33766233766234" stroke="purple" stroke-width="0.5" opacity="0.3" /><line x1="400.43244945966273" y1="116.19047619047619" x2="1303.0031037252688" y2="105.80086580086581" stroke="purple" stroke-width="0.5" opacity="0.3" /><line x1="400.43244945966273" y1="116.19047619047619" x2="652.0269314242003" y2="109.26406926406926" stroke="purple" stroke-width="0.5" opacity="0.3" /><line x1="400.43244945966273" y1="116.19047619047619" x2="807.2864961201437" y2="112.72727272727272" stroke="purple" stroke-width="0.5" opacity="0.3" /><line x1="400.43244945966273" y1="116.19047619047619" x2="1218.8499088924484" y2="123.11688311688312" stroke="purple" stroke-width="0.5" opacity="0.3" /><line x1="365.16656073384297" y1="119.65367965367966" x2="716.8640676926713" y2="50.38961038961039" stroke="purple" stroke-width="0.5" opacity="0.3" /><line x1="365.16656073384297" y1="119.65367965367966" x2="1315.1356392620048" y2="88.48484848484848" stroke="purple" stroke-width="0.5" opacity="0.3" /><line x1="1218.8499088924484" y1="123.11688311688312" x2="426.057007296589" y2="43.46320346320346" stroke="purple" stroke-width="0.5" opacity="0.3" /><line x1="1218.8499088924484" y1="123.11688311688312" x2="855.2326835765263" y2="46.926406926406926" stroke="purple" stroke-width="0.5" opacity="0.3" /><line x1="1218.8499088924484" y1="123.11688311688312" x2="716.8640676926713" y2="50.38961038961039" stroke="purple" stroke-width="0.5" opacity="0.3" /><line x1="1218.8499088924484" y1="123.11688311688312" x2="426.057007296589" y2="53.85281385281385" stroke="purple" stroke-width="0.5" opacity="0.3" /><line x1="1218.8499088924484" y1="123.11688311688312" x2="1296.6837050830188" y2="57.31601731601731" stroke="purple" stroke-width="0.5" opacity="0.3" /><line x1="1218.8499088924484" y1="123.11688311688312" x2="280.80012951485423" y2="60.77922077922078" stroke="purple" stroke-width="0.5" opacity="0.3" /><line x1="1218.8499088924484" y1="123.11688311688312" x2="1208.3229343498624" y2="78.0952380952381" stroke="purple" stroke-width="0.5" opacity="0.3" /><line x1="1218.8499088924484" y1="123.11688311688312" x2="854.7283781258833" y2="81.55844155844156" stroke="purple" stroke-width="0.5" opacity="0.3" /><line x1="1218.8499088924484" y1="123.11688311688312" x2="375.8904226080874" y2="95.41125541125541" stroke="purple" stroke-width="0.5" opacity="0.3" /><line x1="1218.8499088924484" y1="123.11688311688312" x2="365.7976062908127" y2="102.33766233766234" stroke="purple" stroke-width="0.5" opacity="0.3" /><line x1="1218.8499088924484" y1="123.11688311688312" x2="1303.0031037252688" y2="105.80086580086581" stroke="purple" stroke-width="0.5" opacity="0.3" /><line x1="1218.8499088924484" y1="123.11688311688312" x2="652.0269314242003" y2="109.26406926406926" stroke="purple" stroke-width="0.5" opacity="0.3" /><line x1="1218.8499088924484" y1="123.11688311688312" x2="807.2864961201437" y2="112.72727272727272" stroke="purple" stroke-width="0.5" opacity="0.3" /><line x1="1218.8499088924484" y1="123.11688311688312" x2="400.43244945966273" y2="116.19047619047619" stroke="purple" stroke-width="0.5" opacity="0.3" /><circle cx="162.60516095135128" cy="136.58008658008657" r="3" fill="red" opacity="0.7" /><text x="162.60516095135128" y="151.58008658008657" font-size="10" text-anchor="middle">alienship.png</text><circle cx="162.60516095135128" cy="140.04329004329003" r="3" fill="red" opacity="0.7" /><text x="162.60516095135128" y="155.04329004329003" font-size="10" text-anchor="middle">thumbup.png</text><circle cx="140.07993669582214" cy="143.5064935064935" r="3" fill="red" opacity="0.7" /><text x="140.07993669582214" y="158.5064935064935" font-size="10" text-anchor="middle">nachopyramid.png</text><circle cx="140.07993669582214" cy="146.96969696969697" r="3" fill="red" opacity="0.7" /><text x="140.07993669582214" y="161.96969696969697" font-size="10" text-anchor="middle">angelcapitan.png</text><circle cx="140.07993669582214" cy="150.43290043290042" r="3" fill="red" opacity="0.7" /><text x="140.07993669582214" y="165.43290043290042" font-size="10" text-anchor="middle">nachocapitan.png</text><circle cx="270.80012951485423" cy="153.8961038961039" r="3" fill="red" opacity="0.7" /><text x="270.80012951485423" y="168.8961038961039" font-size="10" text-anchor="middle">planet.png</text><circle cx="140.07993669582214" cy="157.35930735930737" r="3" fill="red" opacity="0.7" /><text x="140.07993669582214" y="172.35930735930737" font-size="10" text-anchor="middle">explosive.png</text><circle cx="162.60516095135128" cy="160.82251082251082" r="3" fill="red" opacity="0.7" /><text x="162.60516095135128" y="175.82251082251082" font-size="10" text-anchor="middle">cyberpunk.png</text><circle cx="270.80012951485423" cy="164.28571428571428" r="3" fill="red" opacity="0.7" /><text x="270.80012951485423" y="179.28571428571428" font-size="10" text-anchor="middle">meteor_small.png</text><circle cx="162.60516095135128" cy="167.74891774891773" r="3" fill="red" opacity="0.7" /><text x="162.60516095135128" y="182.74891774891773" font-size="10" text-anchor="middle">aliensign.png</text><circle cx="270.80012951485423" cy="171.21212121212122" r="3" fill="red" opacity="0.7" /><text x="270.80012951485423" y="186.21212121212122" font-size="10" text-anchor="middle">storm_medium.png</text><circle cx="270.80012951485423" cy="174.67532467532467" r="3" fill="red" opacity="0.7" /><text x="270.80012951485423" y="189.67532467532467" font-size="10" text-anchor="middle">meteor_acid.png</text><circle cx="140.07993669582214" cy="178.13852813852813" r="3" fill="red" opacity="0.7" /><text x="140.07993669582214" y="193.13852813852813" font-size="10" text-anchor="middle">nachoparty.png</text><circle cx="140.07993669582214" cy="181.60173160173161" r="3" fill="red" opacity="0.7" /><text x="140.07993669582214" y="196.60173160173161" font-size="10" text-anchor="middle">orpheus.png</text><circle cx="270.80012951485423" cy="185.06493506493507" r="3" fill="red" opacity="0.7" /><text x="270.80012951485423" y="200.06493506493507" font-size="10" text-anchor="middle">meteor_drones.png</text><circle cx="270.80012951485423" cy="188.52813852813853" r="3" fill="red" opacity="0.7" /><text x="270.80012951485423" y="203.52813852813853" font-size="10" text-anchor="middle">planet_huge.png</text><circle cx="270.80012951485423" cy="191.99134199134198" r="3" fill="red" opacity="0.7" /><text x="270.80012951485423" y="206.99134199134198" font-size="10" text-anchor="middle">meteor_shower_lite.png</text><circle cx="140.07993669582214" cy="195.45454545454544" r="3" fill="red" opacity="0.7" /><text x="140.07993669582214" y="210.45454545454544" font-size="10" text-anchor="middle">whitehat.png</text><circle cx="270.80012951485423" cy="198.91774891774892" r="3" fill="red" opacity="0.7" /><text x="270.80012951485423" y="213.91774891774892" font-size="10" text-anchor="middle">death_meteor.png</text><circle cx="270.80012951485423" cy="202.38095238095238" r="3" fill="red" opacity="0.7" /><text x="270.80012951485423" y="217.38095238095238" font-size="10" text-anchor="middle">planet_medium.png</text><circle cx="162.60516095135128" cy="205.84415584415584" r="3" fill="red" opacity="0.7" /><text x="162.60516095135128" y="220.84415584415584" font-size="10" text-anchor="middle">deathray2.png</text><circle cx="140.07993669582214" cy="209.30735930735932" r="3" fill="red" opacity="0.7" /><text x="140.07993669582214" y="224.30735930735932" font-size="10" text-anchor="middle">insanecat.png</text><circle cx="140.07993669582214" cy="212.77056277056278" r="3" fill="red" opacity="0.7" /><text x="140.07993669582214" y="227.77056277056278" font-size="10" text-anchor="middle">speedy.png</text><circle cx="140.07993669582214" cy="216.23376623376623" r="3" fill="red" opacity="0.7" /><text x="140.07993669582214" y="231.23376623376623" font-size="10" text-anchor="middle">keroaccat.png</text><circle cx="140.07993669582214" cy="219.6969696969697" r="3" fill="red" opacity="0.7" /><text x="140.07993669582214" y="234.6969696969697" font-size="10" text-anchor="middle">lasereye.png</text><circle cx="270.80012951485423" cy="223.16017316017314" r="3" fill="red" opacity="0.7" /><text x="270.80012951485423" y="238.16017316017314" font-size="10" text-anchor="middle">meteor_one.png</text><circle cx="162.60516095135128" cy="226.62337662337663" r="3" fill="red" opacity="0.7" /><text x="162.60516095135128" y="241.62337662337663" font-size="10" text-anchor="middle">deathray.png</text><circle cx="270.80012951485423" cy="230.08658008658008" r="3" fill="red" opacity="0.7" /><text x="270.80012951485423" y="245.08658008658008" font-size="10" text-anchor="middle">storm_drone.png</text><circle cx="162.60516095135128" cy="233.54978354978354" r="3" fill="red" opacity="0.7" /><text x="162.60516095135128" y="248.54978354978354" font-size="10" text-anchor="middle">explosion.png</text><circle cx="140.07993669582214" cy="237.01298701298703" r="3" fill="red" opacity="0.7" /><text x="140.07993669582214" y="252.01298701298703" font-size="10" text-anchor="middle">onthemoon.png</text><circle cx="140.07993669582214" cy="240.47619047619048" r="3" fill="red" opacity="0.7" /><text x="140.07993669582214" y="255.47619047619048" font-size="10" text-anchor="middle">acid.png</text><circle cx="1017.852568658044" cy="243.93939393939394" r="3" fill="red" opacity="0.7" /><text x="1017.852568658044" y="258.93939393939394" font-size="10" text-anchor="middle">sparkle_island_1.png</text><circle cx="1017.852568658044" cy="247.4025974025974" r="3" fill="red" opacity="0.7" /><text x="1017.852568658044" y="262.4025974025974" font-size="10" text-anchor="middle">gravitymerge.png</text><circle cx="1316.9771057342662" cy="250.86580086580085" r="3" fill="red" opacity="0.7" /><text x="1316.9771057342662" y="265.86580086580085" font-size="10" text-anchor="middle">acid-bomb-icon.png</text><circle cx="1017.852568658044" cy="254.32900432900433" r="3" fill="red" opacity="0.7" /><text x="1017.852568658044" y="269.3290043290043" font-size="10" text-anchor="middle">sparkle_island_2.png</text><circle cx="1368.949771871801" cy="257.7922077922078" r="3" fill="red" opacity="0.7" /><text x="1368.949771871801" y="272.7922077922078" font-size="10" text-anchor="middle">explo_drone.png</text><circle cx="642.9163479366255" cy="261.2554112554112" r="3" fill="red" opacity="0.7" /><text x="642.9163479366255" y="276.2554112554112" font-size="10" text-anchor="middle">chain_lightning_22.png</text><circle cx="1017.852568658044" cy="264.71861471861473" r="3" fill="red" opacity="0.7" /><text x="1017.852568658044" y="279.71861471861473" font-size="10" text-anchor="middle">sparkle_island_3.png</text><circle cx="642.9163479366255" cy="268.1818181818182" r="3" fill="red" opacity="0.7" /><text x="642.9163479366255" y="283.1818181818182" font-size="10" text-anchor="middle">nano_swarm_22.png</text><circle cx="1368.949771871801" cy="271.64502164502164" r="3" fill="red" opacity="0.7" /><text x="1368.949771871801" y="286.64502164502164" font-size="10" text-anchor="middle">cryo_bomb.png</text><circle cx="78.12302873121754" cy="275.1082251082251" r="3" fill="red" opacity="0.7" /><text x="78.12302873121754" y="290.1082251082251" font-size="10" text-anchor="middle">Explosivelaser.svg</text><circle cx="1273.8625529597577" cy="278.57142857142856" r="3" fill="red" opacity="0.7" /><text x="1273.8625529597577" y="293.57142857142856" font-size="10" text-anchor="middle">boomerang-icon-2.png</text><circle cx="78.12302873121754" cy="282.03463203463207" r="3" fill="red" opacity="0.7" /><text x="78.12302873121754" y="297.03463203463207" font-size="10" text-anchor="middle">Autocannon.svg</text><circle cx="91.37526489859994" cy="285.49783549783547" r="3" fill="red" opacity="0.7" /><text x="91.37526489859994" y="300.49783549783547" font-size="10" text-anchor="middle">Freeze.svg</text><circle cx="357.9428258192892" cy="288.961038961039" r="3" fill="red" opacity="0.7" /><text x="357.9428258192892" y="303.961038961039" font-size="10" text-anchor="middle">epic_gem.png</text><circle cx="104.11523069134742" cy="292.42424242424244" r="3" fill="red" opacity="0.7" /><text x="104.11523069134742" y="307.42424242424244" font-size="10" text-anchor="middle">laserdrone.png</text><circle cx="642.9163479366255" cy="295.8874458874459" r="3" fill="red" opacity="0.7" /><text x="642.9163479366255" y="310.8874458874459" font-size="10" text-anchor="middle">bomber_drone_22.png</text><circle cx="78.12302873121754" cy="299.35064935064935" r="3" fill="red" opacity="0.7" /><text x="78.12302873121754" y="314.35064935064935" font-size="10" text-anchor="middle">Laserdrone.svg</text><circle cx="642.9163479366255" cy="302.8138528138528" r="3" fill="red" opacity="0.7" /><text x="642.9163479366255" y="317.8138528138528" font-size="10" text-anchor="middle">blue_flamethrower_22.png</text><circle cx="91.37526489859994" cy="306.27705627705626" r="3" fill="red" opacity="0.7" /><text x="91.37526489859994" y="321.27705627705626" font-size="10" text-anchor="middle">Acidbomb.svg</text><circle cx="78.12302873121754" cy="309.7402597402597" r="3" fill="red" opacity="0.7" /><text x="78.12302873121754" y="324.7402597402597" font-size="10" text-anchor="middle">Sonicray.svg</text><circle cx="642.9163479366255" cy="313.20346320346323" r="3" fill="red" opacity="0.7" /><text x="642.9163479366255" y="328.20346320346323" font-size="10" text-anchor="middle">freeze_22.png</text><circle cx="1316.9771057342662" cy="316.6666666666667" r="3" fill="red" opacity="0.7" /><text x="1316.9771057342662" y="331.6666666666667" font-size="10" text-anchor="middle">bomber-drone-con.png</text><circle cx="642.9163479366255" cy="320.12987012987014" r="3" fill="red" opacity="0.7" /><text x="642.9163479366255" y="335.12987012987014" font-size="10" text-anchor="middle">yellow_boomerang_22.png</text><circle cx="357.9428258192892" cy="323.5930735930736" r="3" fill="red" opacity="0.7" /><text x="357.9428258192892" y="338.5930735930736" font-size="10" text-anchor="middle">rare_gem.png</text><circle cx="1273.8625529597577" cy="327.05627705627705" r="3" fill="red" opacity="0.7" /><text x="1273.8625529597577" y="342.05627705627705" font-size="10" text-anchor="middle">basic-laser-icon.png</text><circle cx="642.9163479366255" cy="330.5194805194805" r="3" fill="red" opacity="0.7" /><text x="642.9163479366255" y="345.5194805194805" font-size="10" text-anchor="middle">turret_icon_pink.png</text><circle cx="1017.852568658044" cy="333.98268398268397" r="3" fill="red" opacity="0.7" /><text x="1017.852568658044" y="348.98268398268397" font-size="10" text-anchor="middle">gravity_well.png</text><circle cx="91.37526489859994" cy="337.4458874458874" r="3" fill="red" opacity="0.7" /><text x="91.37526489859994" y="352.4458874458874" font-size="10" text-anchor="middle">Boomerang.svg</text><circle cx="1368.949771871801" cy="340.9090909090909" r="3" fill="red" opacity="0.7" /><text x="1368.949771871801" y="355.9090909090909" font-size="10" text-anchor="middle">chain_of_flame.png</text><circle cx="355.3964256455381" cy="344.3722943722944" r="3" fill="red" opacity="0.7" /><text x="355.3964256455381" y="359.3722943722944" font-size="10" text-anchor="middle">explosive-rocket.png</text><circle cx="642.9163479366255" cy="347.83549783549785" r="3" fill="red" opacity="0.7" /><text x="642.9163479366255" y="362.83549783549785" font-size="10" text-anchor="middle">exploding_rocket_22.png</text><circle cx="1450.0" cy="351.2987012987013" r="3" fill="red" opacity="0.7" /><text x="1450.0" y="366.2987012987013" font-size="10" text-anchor="middle">drone_army_icon.png</text><circle cx="78.12302873121754" cy="354.76190476190476" r="3" fill="red" opacity="0.7" /><text x="78.12302873121754" y="369.76190476190476" font-size="10" text-anchor="middle">Deathray.svg</text><circle cx="1273.8625529597577" cy="358.2251082251082" r="3" fill="red" opacity="0.7" /><text x="1273.8625529597577" y="373.2251082251082" font-size="10" text-anchor="middle">ship-icon.png</text><circle cx="78.12302873121754" cy="361.68831168831167" r="3" fill="red" opacity="0.7" /><text x="78.12302873121754" y="376.68831168831167" font-size="10" text-anchor="middle">Bomberdrone.svg</text><circle cx="103.48069174666192" cy="365.1515151515151" r="3" fill="red" opacity="0.7" /><text x="103.48069174666192" y="380.1515151515151" font-size="10" text-anchor="middle">nachospaceshipgold.png</text><circle cx="642.9163479366255" cy="368.61471861471864" r="3" fill="red" opacity="0.7" /><text x="642.9163479366255" y="383.61471861471864" font-size="10" text-anchor="middle">forked_lightning_22.png</text><circle cx="91.37526489859994" cy="372.0779220779221" r="3" fill="red" opacity="0.7" /><text x="91.37526489859994" y="387.0779220779221" font-size="10" text-anchor="middle">Nachospaceship.svg</text><circle cx="642.9163479366255" cy="375.54112554112555" r="3" fill="red" opacity="0.7" /><text x="642.9163479366255" y="390.54112554112555" font-size="10" text-anchor="middle">flamethrower_2_22.png</text><circle cx="91.37526489859994" cy="379.004329004329" r="3" fill="red" opacity="0.7" /><text x="91.37526489859994" y="394.004329004329" font-size="10" text-anchor="middle">Basiclaser.svg</text><circle cx="642.9163479366255" cy="382.46753246753246" r="3" fill="red" opacity="0.7" /><text x="642.9163479366255" y="397.46753246753246" font-size="10" text-anchor="middle">acid_bomb_22.png</text><circle cx="354.95164752157115" cy="385.9307359307359" r="3" fill="red" opacity="0.7" /><text x="354.95164752157115" y="400.9307359307359" font-size="10" text-anchor="middle">flamethrower.png</text><circle cx="354.95164752157115" cy="389.3939393939394" r="3" fill="red" opacity="0.7" /><text x="354.95164752157115" y="404.3939393939394" font-size="10" text-anchor="middle">chainlightning.png</text><circle cx="104.11523069134742" cy="392.85714285714283" r="3" fill="red" opacity="0.7" /><text x="104.11523069134742" y="407.85714285714283" font-size="10" text-anchor="middle">bomberdrone.png</text><circle cx="1017.852568658044" cy="396.3203463203463" r="3" fill="red" opacity="0.7" /><text x="1017.852568658044" y="411.3203463203463" font-size="10" text-anchor="middle">plasma_cannon.png</text><circle cx="1273.8625529597577" cy="399.7835497835498" r="3" fill="red" opacity="0.7" /><text x="1273.8625529597577" y="414.7835497835498" font-size="10" text-anchor="middle">sonic-icon.png</text><circle cx="1274.270999851481" cy="403.24675324675326" r="3" fill="red" opacity="0.7" /><text x="1274.270999851481" y="418.24675324675326" font-size="10" text-anchor="middle">ia-logo.png</text><circle cx="1317.7534762202104" cy="406.7099567099567" r="3" fill="red" opacity="0.7" /><text x="1317.7534762202104" y="421.7099567099567" font-size="10" text-anchor="middle">gold-ore.png</text><circle cx="357.9428258192892" cy="410.17316017316017" r="3" fill="red" opacity="0.7" /><text x="357.9428258192892" y="425.17316017316017" font-size="10" text-anchor="middle">common_gem.png</text><circle cx="104.11523069134742" cy="413.6363636363636" r="3" fill="red" opacity="0.7" /><text x="104.11523069134742" y="428.6363636363636" font-size="10" text-anchor="middle">nanodrone.png</text><circle cx="103.48069174666192" cy="417.0995670995671" r="3" fill="red" opacity="0.7" /><text x="103.48069174666192" y="432.0995670995671" font-size="10" text-anchor="middle">Boomeranggold.png</text><circle cx="642.9163479366255" cy="420.56277056277054" r="3" fill="red" opacity="0.7" /><text x="642.9163479366255" y="435.56277056277054" font-size="10" text-anchor="middle">exploding_laser_22.png</text><circle cx="1399.6323359145808" cy="424.02597402597405" r="3" fill="red" opacity="0.7" /><text x="1399.6323359145808" y="439.02597402597405" font-size="10" text-anchor="middle">ia-logo2.png</text><circle cx="642.9163479366255" cy="427.4891774891775" r="3" fill="red" opacity="0.7" /><text x="642.9163479366255" y="442.4891774891775" font-size="10" text-anchor="middle">death_ray_22.png</text><circle cx="451.66985929033524" cy="430.95238095238096" r="3" fill="red" opacity="0.7" /><text x="451.66985929033524" y="445.95238095238096" font-size="10" text-anchor="middle">swarming_alien_5_pink.png</text><circle cx="451.66985929033524" cy="434.4155844155844" r="3" fill="red" opacity="0.7" /><text x="451.66985929033524" y="449.4155844155844" font-size="10" text-anchor="middle">swarming_alien_4_pink.png</text><circle cx="451.66985929033524" cy="437.8787878787879" r="3" fill="red" opacity="0.7" /><text x="451.66985929033524" y="452.8787878787879" font-size="10" text-anchor="middle">swarming_alien_3_orange.png</text><circle cx="451.66985929033524" cy="441.34199134199133" r="3" fill="red" opacity="0.7" /><text x="451.66985929033524" y="456.34199134199133" font-size="10" text-anchor="middle">swarming_alien_7_green.png</text><circle cx="451.66985929033524" cy="444.8051948051948" r="3" fill="red" opacity="0.7" /><text x="451.66985929033524" y="459.8051948051948" font-size="10" text-anchor="middle">swarming_alien_6_orange.png</text><circle cx="451.66985929033524" cy="448.26839826839824" r="3" fill="red" opacity="0.7" /><text x="451.66985929033524" y="463.26839826839824" font-size="10" text-anchor="middle">swarming_alien_1_green.png</text><circle cx="451.66985929033524" cy="451.7316017316017" r="3" fill="red" opacity="0.7" /><text x="451.66985929033524" y="466.7316017316017" font-size="10" text-anchor="middle">swarming_alien_1_orange.png</text><circle cx="451.66985929033524" cy="455.1948051948052" r="3" fill="red" opacity="0.7" /><text x="451.66985929033524" y="470.1948051948052" font-size="10" text-anchor="middle">swarming_alien_6_green.png</text><circle cx="451.66985929033524" cy="458.65800865800867" r="3" fill="red" opacity="0.7" /><text x="451.66985929033524" y="473.65800865800867" font-size="10" text-anchor="middle">swarming_alien_4_orange.png</text><circle cx="451.66985929033524" cy="462.1212121212121" r="3" fill="red" opacity="0.7" /><text x="451.66985929033524" y="477.1212121212121" font-size="10" text-anchor="middle">swarming_alien_8_pink.png</text><circle cx="451.66985929033524" cy="465.5844155844156" r="3" fill="red" opacity="0.7" /><text x="451.66985929033524" y="480.5844155844156" font-size="10" text-anchor="middle">swarming_alien_9_pink.png</text><circle cx="451.66985929033524" cy="469.04761904761904" r="3" fill="red" opacity="0.7" /><text x="451.66985929033524" y="484.04761904761904" font-size="10" text-anchor="middle">swarming_alien_2_pink.png</text><circle cx="451.66985929033524" cy="472.5108225108225" r="3" fill="red" opacity="0.7" /><text x="451.66985929033524" y="487.5108225108225" font-size="10" text-anchor="middle">swarming_alien_3_pink.png</text><circle cx="451.4854084189446" cy="475.97402597402595" r="3" fill="red" opacity="0.7" /><text x="451.4854084189446" y="490.97402597402595" font-size="10" text-anchor="middle">swarming_alien_9.png</text><circle cx="451.66985929033524" cy="479.43722943722946" r="3" fill="red" opacity="0.7" /><text x="451.66985929033524" y="494.43722943722946" font-size="10" text-anchor="middle">swarming_alien_9_orange.png</text><circle cx="451.4854084189446" cy="482.9004329004329" r="3" fill="red" opacity="0.7" /><text x="451.4854084189446" y="497.9004329004329" font-size="10" text-anchor="middle">swarming_alien_8.png</text><circle cx="451.4854084189446" cy="486.3636363636364" r="3" fill="red" opacity="0.7" /><text x="451.4854084189446" y="501.3636363636364" font-size="10" text-anchor="middle">swarming_alien_5.png</text><circle cx="451.66985929033524" cy="489.82683982683983" r="3" fill="red" opacity="0.7" /><text x="451.66985929033524" y="504.82683982683983" font-size="10" text-anchor="middle">swarming_alien_8_green.png</text><circle cx="451.4854084189446" cy="493.2900432900433" r="3" fill="red" opacity="0.7" /><text x="451.4854084189446" y="508.2900432900433" font-size="10" text-anchor="middle">swarming_alien_4.png</text><circle cx="451.66985929033524" cy="496.75324675324674" r="3" fill="red" opacity="0.7" /><text x="451.66985929033524" y="511.75324675324674" font-size="10" text-anchor="middle">swarming_alien_7_orange.png</text><circle cx="451.4854084189446" cy="500.2164502164502" r="3" fill="red" opacity="0.7" /><text x="451.4854084189446" y="515.2164502164502" font-size="10" text-anchor="middle">swarming_alien_6.png</text><circle cx="451.66985929033524" cy="503.67965367965365" r="3" fill="red" opacity="0.7" /><text x="451.66985929033524" y="518.6796536796537" font-size="10" text-anchor="middle">swarming_alien_5_green.png</text><circle cx="451.4854084189446" cy="507.1428571428571" r="3" fill="red" opacity="0.7" /><text x="451.4854084189446" y="522.1428571428571" font-size="10" text-anchor="middle">swarming_alien_7.png</text><circle cx="451.66985929033524" cy="510.6060606060606" r="3" fill="red" opacity="0.7" /><text x="451.66985929033524" y="525.6060606060606" font-size="10" text-anchor="middle">swarming_alien_6_pink.png</text><circle cx="451.66985929033524" cy="514.0692640692641" r="3" fill="red" opacity="0.7" /><text x="451.66985929033524" y="529.0692640692641" font-size="10" text-anchor="middle">swarming_alien_7_pink.png</text><circle cx="451.4854084189446" cy="517.5324675324675" r="3" fill="red" opacity="0.7" /><text x="451.4854084189446" y="532.5324675324675" font-size="10" text-anchor="middle">swarming_alien_3.png</text><circle cx="451.4854084189446" cy="520.9956709956709" r="3" fill="red" opacity="0.7" /><text x="451.4854084189446" y="535.9956709956709" font-size="10" text-anchor="middle">swarming_alien_2.png</text><circle cx="451.66985929033524" cy="524.4588744588744" r="3" fill="red" opacity="0.7" /><text x="451.66985929033524" y="539.4588744588744" font-size="10" text-anchor="middle">swarming_alien_2_orange.png</text><circle cx="451.4854084189446" cy="527.922077922078" r="3" fill="red" opacity="0.7" /><text x="451.4854084189446" y="542.922077922078" font-size="10" text-anchor="middle">swarming_alien_1.png</text><circle cx="451.66985929033524" cy="531.3852813852814" r="3" fill="red" opacity="0.7" /><text x="451.66985929033524" y="546.3852813852814" font-size="10" text-anchor="middle">swarming_alien_3_green.png</text><circle cx="451.66985929033524" cy="534.8484848484849" r="3" fill="red" opacity="0.7" /><text x="451.66985929033524" y="549.8484848484849" font-size="10" text-anchor="middle">swarming_alien_1_pink.png</text><circle cx="451.66985929033524" cy="538.3116883116884" r="3" fill="red" opacity="0.7" /><text x="451.66985929033524" y="553.3116883116884" font-size="10" text-anchor="middle">swarming_alien_9_green.png</text><circle cx="451.66985929033524" cy="541.7748917748918" r="3" fill="red" opacity="0.7" /><text x="451.66985929033524" y="556.7748917748918" font-size="10" text-anchor="middle">swarming_alien_5_orange.png</text><circle cx="451.66985929033524" cy="545.2380952380952" r="3" fill="red" opacity="0.7" /><text x="451.66985929033524" y="560.2380952380952" font-size="10" text-anchor="middle">swarming_alien_4_green.png</text><circle cx="451.66985929033524" cy="548.7012987012987" r="3" fill="red" opacity="0.7" /><text x="451.66985929033524" y="563.7012987012987" font-size="10" text-anchor="middle">swarming_alien_8_orange.png</text><circle cx="451.66985929033524" cy="552.1645021645022" r="3" fill="red" opacity="0.7" /><text x="451.66985929033524" y="567.1645021645022" font-size="10" text-anchor="middle">swarming_alien_2_green.png</text><circle cx="1368.949771871801" cy="555.6277056277056" r="3" fill="red" opacity="0.7" /><text x="1368.949771871801" y="570.6277056277056" font-size="10" text-anchor="middle">alien_boss_ship_9.png</text><circle cx="1368.949771871801" cy="559.090909090909" r="3" fill="red" opacity="0.7" /><text x="1368.949771871801" y="574.090909090909" font-size="10" text-anchor="middle">alien_boss_ship_8.png</text><circle cx="1368.949771871801" cy="562.5541125541125" r="3" fill="red" opacity="0.7" /><text x="1368.949771871801" y="577.5541125541125" font-size="10" text-anchor="middle">alien-bullet-ship.png</text><circle cx="1368.949771871801" cy="566.017316017316" r="3" fill="red" opacity="0.7" /><text x="1368.949771871801" y="581.017316017316" font-size="10" text-anchor="middle">alien_boss_ship_14.png</text><circle cx="1368.949771871801" cy="569.4805194805194" r="3" fill="red" opacity="0.7" /><text x="1368.949771871801" y="584.4805194805194" font-size="10" text-anchor="middle">little_alien_ship_green.png</text><circle cx="1368.949771871801" cy="572.943722943723" r="3" fill="red" opacity="0.7" /><text x="1368.949771871801" y="587.943722943723" font-size="10" text-anchor="middle">alien_boss_ship_15.png</text><circle cx="1368.949771871801" cy="576.4069264069265" r="3" fill="red" opacity="0.7" /><text x="1368.949771871801" y="591.4069264069265" font-size="10" text-anchor="middle">alien_boss_ship_17.png</text><circle cx="1368.949771871801" cy="579.8701298701299" r="3" fill="red" opacity="0.7" /><text x="1368.949771871801" y="594.8701298701299" font-size="10" text-anchor="middle">alien_boss_ship_green.png</text><circle cx="1368.949771871801" cy="583.3333333333334" r="3" fill="red" opacity="0.7" /><text x="1368.949771871801" y="598.3333333333334" font-size="10" text-anchor="middle">alien-small-saucer2.png</text><circle cx="1368.949771871801" cy="586.7965367965368" r="3" fill="red" opacity="0.7" /><text x="1368.949771871801" y="601.7965367965368" font-size="10" text-anchor="middle">alien_boss_ship_16.png</text><circle cx="1368.949771871801" cy="590.2597402597403" r="3" fill="red" opacity="0.7" /><text x="1368.949771871801" y="605.2597402597403" font-size="10" text-anchor="middle">cool_evil_alien_22.png</text><circle cx="1368.949771871801" cy="593.7229437229437" r="3" fill="red" opacity="0.7" /><text x="1368.949771871801" y="608.7229437229437" font-size="10" text-anchor="middle">alien_boss_ship_12.png</text><circle cx="1368.949771871801" cy="597.1861471861472" r="3" fill="red" opacity="0.7" /><text x="1368.949771871801" y="612.1861471861472" font-size="10" text-anchor="middle">alien_boss_ship_13.png</text><circle cx="1368.949771871801" cy="600.6493506493506" r="3" fill="red" opacity="0.7" /><text x="1368.949771871801" y="615.6493506493506" font-size="10" text-anchor="middle">alien_boss_ship_11.png</text><circle cx="1368.949771871801" cy="604.1125541125541" r="3" fill="red" opacity="0.7" /><text x="1368.949771871801" y="619.1125541125541" font-size="10" text-anchor="middle">alien-small-saucer.png</text><circle cx="1368.949771871801" cy="607.5757575757576" r="3" fill="red" opacity="0.7" /><text x="1368.949771871801" y="622.5757575757576" font-size="10" text-anchor="middle">alien_boss_ship_10.png</text><circle cx="1368.949771871801" cy="611.038961038961" r="3" fill="red" opacity="0.7" /><text x="1368.949771871801" y="626.038961038961" font-size="10" text-anchor="middle">alien-bullet-ship3.png</text><circle cx="1368.949771871801" cy="614.5021645021645" r="3" fill="red" opacity="0.7" /><text x="1368.949771871801" y="629.5021645021645" font-size="10" text-anchor="middle">alien_boss_ship_5.png</text><circle cx="1368.949771871801" cy="617.9653679653679" r="3" fill="red" opacity="0.7" /><text x="1368.949771871801" y="632.9653679653679" font-size="10" text-anchor="middle">alien_boss_ship_4.png</text><circle cx="1368.949771871801" cy="621.4285714285714" r="3" fill="red" opacity="0.7" /><text x="1368.949771871801" y="636.4285714285714" font-size="10" text-anchor="middle">alien-bullet-ship2.png</text><circle cx="1368.949771871801" cy="624.8917748917748" r="3" fill="red" opacity="0.7" /><text x="1368.949771871801" y="639.8917748917748" font-size="10" text-anchor="middle">little_alien_ship.png</text><circle cx="1368.949771871801" cy="628.3549783549784" r="3" fill="red" opacity="0.7" /><text x="1368.949771871801" y="643.3549783549784" font-size="10" text-anchor="middle">alien_boss_ship_6.png</text><circle cx="1368.949771871801" cy="631.8181818181818" r="3" fill="red" opacity="0.7" /><text x="1368.949771871801" y="646.8181818181818" font-size="10" text-anchor="middle">alien_boss_ship_7.png</text><circle cx="1368.949771871801" cy="635.2813852813853" r="3" fill="red" opacity="0.7" /><text x="1368.949771871801" y="650.2813852813853" font-size="10" text-anchor="middle">alien_boss_ship_3.png</text><circle cx="1368.949771871801" cy="638.7445887445888" r="3" fill="red" opacity="0.7" /><text x="1368.949771871801" y="653.7445887445888" font-size="10" text-anchor="middle">alien_boss_ship_2.png</text><circle cx="1368.949771871801" cy="642.2077922077922" r="3" fill="red" opacity="0.7" /><text x="1368.949771871801" y="657.2077922077922" font-size="10" text-anchor="middle">cool_alien_22.png</text><circle cx="1368.949771871801" cy="645.6709956709957" r="3" fill="red" opacity="0.7" /><text x="1368.949771871801" y="660.6709956709957" font-size="10" text-anchor="middle">alien_boss_ship_1.png</text><circle cx="1430.5036826295188" cy="649.1341991341991" r="3" fill="red" opacity="0.7" /><text x="1430.5036826295188" y="664.1341991341991" font-size="10" text-anchor="middle">login.png</text><circle cx="1430.5036826295188" cy="652.5974025974026" r="3" fill="red" opacity="0.7" /><text x="1430.5036826295188" y="667.5974025974026" font-size="10" text-anchor="middle">logout.png</text><circle cx="849.5766413332843" cy="656.060606060606" r="3" fill="red" opacity="0.7" /><text x="849.5766413332843" y="671.060606060606" font-size="10" text-anchor="middle">asteroid_splitter_22.png</text><circle cx="849.5766413332843" cy="659.5238095238095" r="3" fill="red" opacity="0.7" /><text x="849.5766413332843" y="674.5238095238095" font-size="10" text-anchor="middle">pyramidship_22_22.png</text><circle cx="451.2215877786525" cy="662.987012987013" r="3" fill="red" opacity="0.7" /><text x="451.2215877786525" y="677.987012987013" font-size="10" text-anchor="middle">pickle.png</text><circle cx="451.2215877786525" cy="666.4502164502164" r="3" fill="red" opacity="0.7" /><text x="451.2215877786525" y="681.4502164502164" font-size="10" text-anchor="middle">pixie2.png</text><circle cx="1390.8781857699746" cy="669.91341991342" r="3" fill="red" opacity="0.7" /><text x="1390.8781857699746" y="684.91341991342" font-size="10" text-anchor="middle">cluster_bomb.png</text><circle cx="451.2215877786525" cy="673.3766233766233" r="3" fill="red" opacity="0.7" /><text x="451.2215877786525" y="688.3766233766233" font-size="10" text-anchor="middle">potato.png</text><circle cx="851.5689902153204" cy="676.8398268398269" r="3" fill="red" opacity="0.7" /><text x="851.5689902153204" y="691.8398268398269" font-size="10" text-anchor="middle">potatoroid_10.png</text><circle cx="849.5766413332843" cy="680.3030303030303" r="3" fill="red" opacity="0.7" /><text x="849.5766413332843" y="695.3030303030303" font-size="10" text-anchor="middle">explodingdrone_22.png</text><circle cx="851.6343864333589" cy="683.7662337662338" r="3" fill="red" opacity="0.7" /><text x="851.6343864333589" y="698.7662337662338" font-size="10" text-anchor="middle">floating_island_10.png</text><circle cx="849.5766413332843" cy="687.2294372294373" r="3" fill="red" opacity="0.7" /><text x="849.5766413332843" y="702.2294372294373" font-size="10" text-anchor="middle">sonicboomerang_22.png</text><circle cx="1390.8781857699746" cy="690.6926406926407" r="3" fill="red" opacity="0.7" /><text x="1390.8781857699746" y="705.6926406926407" font-size="10" text-anchor="middle">double_turret.png</text><circle cx="1390.8781857699746" cy="694.1558441558442" r="3" fill="red" opacity="0.7" /><text x="1390.8781857699746" y="709.1558441558442" font-size="10" text-anchor="middle">triple_turret.png</text><circle cx="849.5766413332843" cy="697.6190476190476" r="3" fill="red" opacity="0.7" /><text x="849.5766413332843" y="712.6190476190476" font-size="10" text-anchor="middle">chainlightning_22.png</text><circle cx="451.2215877786525" cy="701.0822510822511" r="3" fill="red" opacity="0.7" /><text x="451.2215877786525" y="716.0822510822511" font-size="10" text-anchor="middle">mainframe.png</text><circle cx="451.2215877786525" cy="704.5454545454545" r="3" fill="red" opacity="0.7" /><text x="451.2215877786525" y="719.5454545454545" font-size="10" text-anchor="middle">drone_army2.png</text><circle cx="451.2215877786525" cy="708.008658008658" r="3" fill="red" opacity="0.7" /><text x="451.2215877786525" y="723.008658008658" font-size="10" text-anchor="middle">darkside.png</text><circle cx="451.2215877786525" cy="711.4718614718614" r="3" fill="red" opacity="0.7" /><text x="451.2215877786525" y="726.4718614718614" font-size="10" text-anchor="middle">potato3.png</text><circle cx="451.2215877786525" cy="714.9350649350649" r="3" fill="red" opacity="0.7" /><text x="451.2215877786525" y="729.9350649350649" font-size="10" text-anchor="middle">void.png</text><circle cx="849.5766413332843" cy="718.3982683982684" r="3" fill="red" opacity="0.7" /><text x="849.5766413332843" y="733.3982683982684" font-size="10" text-anchor="middle">floating_island_22.png</text><circle cx="851.5689902153204" cy="721.8614718614718" r="3" fill="red" opacity="0.7" /><text x="851.5689902153204" y="736.8614718614718" font-size="10" text-anchor="middle">explodingdrone_10.png</text><circle cx="451.2215877786525" cy="725.3246753246754" r="3" fill="red" opacity="0.7" /><text x="451.2215877786525" y="740.3246753246754" font-size="10" text-anchor="middle">potato2.png</text><circle cx="451.2215877786525" cy="728.7878787878788" r="3" fill="red" opacity="0.7" /><text x="451.2215877786525" y="743.7878787878788" font-size="10" text-anchor="middle">pixie.png</text><circle cx="451.2215877786525" cy="732.2510822510823" r="3" fill="red" opacity="0.7" /><text x="451.2215877786525" y="747.2510822510823" font-size="10" text-anchor="middle">monkey.png</text><circle cx="851.5689902153204" cy="735.7142857142857" r="3" fill="red" opacity="0.7" /><text x="851.5689902153204" y="750.7142857142857" font-size="10" text-anchor="middle">potatoroid2_10.png</text><circle cx="451.2215877786525" cy="739.1774891774892" r="3" fill="red" opacity="0.7" /><text x="451.2215877786525" y="754.1774891774892" font-size="10" text-anchor="middle">pizza.png</text><circle cx="849.5766413332843" cy="742.6406926406926" r="3" fill="red" opacity="0.7" /><text x="849.5766413332843" y="757.6406926406926" font-size="10" text-anchor="middle">quantum_teleporter_22.png</text><circle cx="451.2215877786525" cy="746.1038961038961" r="3" fill="red" opacity="0.7" /><text x="451.2215877786525" y="761.1038961038961" font-size="10" text-anchor="middle">drone_army.png</text><circle cx="1340.7701502595885" cy="749.5670995670996" r="3" fill="red" opacity="0.7" /><text x="1340.7701502595885" y="764.5670995670996" font-size="10" text-anchor="middle">space_monkey_orb.png</text><circle cx="1368.949771871801" cy="753.030303030303" r="3" fill="red" opacity="0.7" /><text x="1368.949771871801" y="768.030303030303" font-size="10" text-anchor="middle">metametaphysical_pickle.png</text><circle cx="1340.7701502595885" cy="756.4935064935065" r="3" fill="red" opacity="0.7" /><text x="1340.7701502595885" y="771.4935064935065" font-size="10" text-anchor="middle">gold_pixie_orb.png</text><circle cx="1368.949771871801" cy="759.9567099567099" r="3" fill="red" opacity="0.7" /><text x="1368.949771871801" y="774.9567099567099" font-size="10" text-anchor="middle">pickle_orb.png</text><circle cx="1340.7701502595885" cy="763.4199134199134" r="3" fill="red" opacity="0.7" /><text x="1340.7701502595885" y="778.4199134199134" font-size="10" text-anchor="middle">purple_pixie_orb.png</text><circle cx="1341.1957846188734" cy="766.8831168831168" r="3" fill="red" opacity="0.7" /><text x="1341.1957846188734" y="781.8831168831168" font-size="10" text-anchor="middle">pizza_space_orb.png</text><circle cx="1340.7701502595885" cy="770.3463203463203" r="3" fill="red" opacity="0.7" /><text x="1340.7701502595885" y="785.3463203463203" font-size="10" text-anchor="middle">space_pixie_orb.png</text><circle cx="1340.7701502595885" cy="773.8095238095239" r="3" fill="red" opacity="0.7" /><text x="1340.7701502595885" y="788.8095238095239" font-size="10" text-anchor="middle">purple_pixie_orb2.png</text><circle cx="1340.7701502595885" cy="777.2727272727273" r="3" fill="red" opacity="0.7" /><text x="1340.7701502595885" y="792.2727272727273" font-size="10" text-anchor="middle">bertha_orb2.png</text><circle cx="1340.7701502595885" cy="780.7359307359308" r="3" fill="red" opacity="0.7" /><text x="1340.7701502595885" y="795.7359307359308" font-size="10" text-anchor="middle">bertha_orb1.png</text><circle cx="1340.7701502595885" cy="784.1991341991342" r="3" fill="red" opacity="0.7" /><text x="1340.7701502595885" y="799.1991341991342" font-size="10" text-anchor="middle">green_pixie_orb.png</text><circle cx="1368.949771871801" cy="787.6623376623377" r="3" fill="red" opacity="0.7" /><text x="1368.949771871801" y="802.6623376623377" font-size="10" text-anchor="middle">metaphysical_pickle.png</text><circle cx="1340.7701502595885" cy="791.1255411255411" r="3" fill="red" opacity="0.7" /><text x="1340.7701502595885" y="806.1255411255411" font-size="10" text-anchor="middle">dark_side_orb.png</text><circle cx="1340.7701502595885" cy="794.5887445887446" r="3" fill="red" opacity="0.7" /><text x="1340.7701502595885" y="809.5887445887446" font-size="10" text-anchor="middle">sparkle_orb.png</text><circle cx="1340.7701502595885" cy="798.0519480519481" r="3" fill="red" opacity="0.7" /><text x="1340.7701502595885" y="813.0519480519481" font-size="10" text-anchor="middle">potato_orb.png</text><circle cx="1340.7701502595885" cy="801.5151515151515" r="3" fill="red" opacity="0.7" /><text x="1340.7701502595885" y="816.5151515151515" font-size="10" text-anchor="middle">potato_orb2.png</text><circle cx="1340.7701502595885" cy="804.978354978355" r="3" fill="red" opacity="0.7" /><text x="1340.7701502595885" y="819.978354978355" font-size="10" text-anchor="middle">darkerdarkside_orb3.png</text><circle cx="1340.7701502595885" cy="808.4415584415584" r="3" fill="red" opacity="0.7" /><text x="1340.7701502595885" y="823.4415584415584" font-size="10" text-anchor="middle">pink_pixie_orb2.png</text><circle cx="1340.7701502595885" cy="811.9047619047619" r="3" fill="red" opacity="0.7" /><text x="1340.7701502595885" y="826.9047619047619" font-size="10" text-anchor="middle">dark_side_orb2.png</text><circle cx="1340.7701502595885" cy="815.3679653679653" r="3" fill="red" opacity="0.7" /><text x="1340.7701502595885" y="830.3679653679653" font-size="10" text-anchor="middle">space_pixie_orb2.png</text><circle cx="1340.7701502595885" cy="818.8311688311688" r="3" fill="red" opacity="0.7" /><text x="1340.7701502595885" y="833.8311688311688" font-size="10" text-anchor="middle">splitting_laser.png</text><circle cx="1340.7701502595885" cy="822.2943722943722" r="3" fill="red" opacity="0.7" /><text x="1340.7701502595885" y="837.2943722943722" font-size="10" text-anchor="middle">bomb_icon_2.png</text><circle cx="1340.7701502595885" cy="825.7575757575758" r="3" fill="red" opacity="0.7" /><text x="1340.7701502595885" y="840.7575757575758" font-size="10" text-anchor="middle">bomb_icon_3.png</text><circle cx="1340.7701502595885" cy="829.2207792207793" r="3" fill="red" opacity="0.7" /><text x="1340.7701502595885" y="844.2207792207793" font-size="10" text-anchor="middle">invinciblity_icon.png</text><rect x="1412.6280975369818" y="785" width="50" height="30" fill="green" opacity="0.7" /><text x="1437.6280975369818" y="830" font-size="10" text-anchor="middle">stats.html</text><rect x="25.0" y="485.0" width="50" height="30" fill="green" opacity="0.7" /><text x="50.0" y="530.0" font-size="10" text-anchor="middle">index.html</text><rect x="136.95231665503536" y="785" width="50" height="30" fill="green" opacity="0.7" /><text x="161.95231665503536" y="830" font-size="10" text-anchor="middle">instructions.html</text><rect x="977.0722376685409" y="785" width="50" height="30" fill="green" opacity="0.7" /><text x="1002.0722376685409" y="830" font-size="10" text-anchor="middle">playground.html</text><rect x="1338.4931002598282" y="785" width="50" height="30" fill="green" opacity="0.7" /><text x="1363.4931002598282" y="830" font-size="10" text-anchor="middle">sdk.html</text><text x="50" y="910" font-size="14" font-weight="bold">Summary:</text><text x="50" y="930" font-size="14" font-weight="normal">Total JS Files: 24</text><text x="50" y="950" font-size="14" font-weight="normal">Total Lines of Code: 14591</text><text x="50" y="970" font-size="14" font-weight="normal">Total Images: 201</text><text x="50" y="990" font-size="14" font-weight="normal">Weapons: 22</text><text x="50" y="1010" font-size="14" font-weight="normal">Game Modes: 10</text><text x="50" y="1030" font-size="14" font-weight="normal">Achievements: 45</text></svg>